<svg id="svg" version="1.1" xmlns="http://www.w3.org/2000/svg" xmlns:xlink="http://www.w3.org/1999/xlink" width="400" height="400" viewBox="0, 0, 400,400"><g id="svgg"><path id="path0" d="M116.600 10.239 C 115.940 10.331,113.973 10.599,112.229 10.835 C 105.872 11.696,103.256 13.424,101.028 18.231 C 100.424 19.534,99.754 20.933,99.538 21.339 C 99.321 21.745,99.239 22.173,99.355 22.288 C 99.471 22.404,99.869 21.802,100.239 20.950 C 102.683 15.324,104.350 13.308,107.445 12.234 C 109.884 11.388,117.755 10.881,118.165 11.543 C 118.361 11.860,117.858 12.009,116.524 12.028 C 115.184 12.048,114.840 12.150,115.390 12.365 C 116.104 12.644,116.065 12.715,114.990 13.105 C 114.221 13.384,114.061 13.548,114.537 13.568 C 115.715 13.619,117.354 15.055,116.574 15.354 C 116.211 15.494,116.074 15.796,116.247 16.075 C 116.410 16.340,116.578 17.315,116.619 18.242 C 116.782 21.858,118.095 22.955,121.400 22.235 C 121.840 22.140,122.577 22.047,123.037 22.031 C 123.563 22.011,124.149 21.489,124.615 20.624 C 125.022 19.868,125.501 19.339,125.678 19.448 C 125.855 19.558,126.000 19.496,126.000 19.310 C 126.000 18.071,127.759 16.819,128.541 17.503 C 128.979 17.886,129.206 17.975,129.045 17.700 C 128.840 17.349,129.087 17.202,129.876 17.206 C 130.749 17.211,130.866 17.299,130.400 17.600 C 130.070 17.813,129.995 17.991,130.233 17.994 C 131.146 18.007,131.173 17.420,130.304 16.433 L 129.400 15.406 130.309 16.173 C 131.007 16.762,131.329 16.831,131.689 16.471 C 132.050 16.110,132.032 16.000,131.613 16.000 C 131.313 16.000,131.161 15.906,131.276 15.791 C 131.391 15.676,132.681 16.118,134.142 16.774 C 135.604 17.430,136.800 17.886,136.800 17.788 C 136.800 17.500,131.176 14.749,129.000 13.972 C 127.900 13.580,127.283 13.245,127.630 13.229 C 129.603 13.138,140.775 18.059,142.271 19.678 C 143.542 21.055,144.800 23.497,144.800 24.589 C 144.800 25.119,144.956 25.649,145.147 25.767 C 145.864 26.210,144.753 22.175,143.766 20.751 C 139.787 15.009,124.601 9.133,116.600 10.239 M307.868 10.476 C 300.506 11.358,288.244 21.533,288.438 26.600 C 288.463 27.249,288.526 27.210,288.774 26.397 C 289.389 24.373,290.391 22.904,292.120 21.487 C 293.093 20.689,294.947 19.021,296.238 17.781 C 299.050 15.078,301.262 13.724,304.094 12.970 C 307.107 12.168,307.820 12.309,305.119 13.172 C 301.655 14.280,299.722 15.597,296.000 19.383 C 291.828 23.628,291.366 24.222,294.821 20.900 C 297.856 17.983,298.989 17.533,296.383 20.280 C 295.402 21.314,294.915 21.922,295.300 21.631 C 295.685 21.340,296.000 21.248,296.000 21.426 C 296.000 21.604,296.526 21.246,297.168 20.630 C 297.830 19.997,298.277 19.198,298.198 18.790 C 298.122 18.394,298.448 17.739,298.923 17.335 C 299.581 16.775,299.664 16.758,299.274 17.264 C 298.910 17.736,298.889 18.008,299.201 18.200 C 299.489 18.379,299.275 18.950,298.580 19.862 C 297.996 20.627,297.628 21.361,297.761 21.495 C 298.091 21.825,300.000 19.988,300.000 19.340 C 300.000 18.956,300.252 18.915,300.959 19.184 C 301.486 19.385,302.055 19.425,302.223 19.274 C 302.391 19.124,302.373 19.267,302.182 19.594 C 301.767 20.307,301.574 22.723,301.854 23.700 C 302.442 25.757,304.800 23.358,304.800 20.703 C 304.800 19.309,306.318 19.219,306.962 20.575 C 308.357 23.517,314.400 22.689,314.400 19.557 C 314.400 18.957,314.625 18.376,314.900 18.265 C 315.279 18.112,315.282 18.056,314.913 18.032 C 314.644 18.014,314.523 17.746,314.642 17.435 C 314.769 17.103,314.558 16.792,314.129 16.681 C 313.467 16.510,313.464 16.489,314.100 16.446 C 314.485 16.421,314.800 16.220,314.800 16.000 C 314.800 15.780,315.115 15.594,315.500 15.587 C 316.136 15.576,316.129 15.521,315.429 14.991 C 314.508 14.295,314.722 14.011,316.480 13.595 L 317.800 13.282 316.200 13.181 L 314.600 13.080 316.400 12.800 C 317.726 12.594,316.883 12.490,313.200 12.405 L 308.200 12.290 312.000 11.924 C 324.038 10.764,330.596 14.014,333.549 22.602 C 334.102 24.212,334.378 24.660,334.387 23.964 C 334.430 20.617,328.995 13.929,325.026 12.444 C 320.858 10.885,312.479 9.924,307.868 10.476 M131.800 16.800 C 131.664 17.020,131.764 17.200,132.023 17.200 C 132.312 17.200,132.405 17.546,132.263 18.100 C 132.039 18.973,132.056 18.970,132.841 18.000 L 133.650 17.000 133.384 18.000 C 133.126 18.968,133.137 18.975,133.728 18.200 C 134.289 17.465,134.267 17.360,133.469 16.914 C 132.392 16.312,132.113 16.293,131.800 16.800 M129.600 23.325 C 129.600 23.997,129.854 24.247,130.600 24.308 C 131.317 24.368,131.598 24.194,131.594 23.696 C 131.589 23.100,131.532 23.086,131.200 23.600 C 130.863 24.121,130.811 24.113,130.806 23.543 C 130.803 23.181,130.530 22.782,130.200 22.655 C 129.776 22.493,129.600 22.689,129.600 23.325 M98.065 25.017 C 97.809 25.578,97.600 26.366,97.600 26.768 C 97.600 27.170,97.262 28.286,96.848 29.249 C 96.434 30.212,95.992 31.810,95.866 32.800 C 95.711 34.010,95.751 34.338,95.990 33.800 C 96.184 33.360,96.356 32.616,96.372 32.146 C 96.387 31.676,96.669 30.776,96.998 30.146 C 97.327 29.516,97.700 28.370,97.827 27.600 C 97.954 26.830,98.255 25.795,98.496 25.301 C 98.737 24.806,98.844 24.310,98.732 24.199 C 98.621 24.088,98.321 24.456,98.065 25.017 M334.614 27.800 C 335.259 37.788,335.292 39.322,334.892 40.711 C 334.656 41.530,334.260 42.970,334.012 43.912 C 333.729 44.985,333.396 45.521,333.119 45.350 C 332.852 45.185,332.789 45.259,332.962 45.538 C 333.119 45.792,333.102 46.000,332.924 45.999 C 332.746 45.999,332.681 47.034,332.780 48.299 L 332.961 50.600 333.232 48.400 C 333.381 47.190,333.815 45.300,334.196 44.200 C 334.577 43.100,335.049 41.647,335.244 40.972 C 335.746 39.240,335.643 34.553,334.991 29.400 C 334.632 26.568,334.498 25.998,334.614 27.800 M145.765 33.400 C 145.766 37.360,145.826 38.926,145.898 36.880 C 145.971 34.834,145.971 31.594,145.898 29.680 C 145.824 27.766,145.765 29.440,145.765 33.400 M287.820 28.100 C 287.735 28.375,287.583 29.050,287.482 29.600 C 287.382 30.150,287.005 31.275,286.644 32.100 C 286.284 32.925,286.066 33.600,286.159 33.600 C 286.510 33.600,287.929 30.148,288.092 28.900 C 288.262 27.599,288.112 27.159,287.820 28.100 M95.280 37.876 C 95.236 39.678,95.035 41.255,94.834 41.379 C 94.416 41.638,92.674 46.808,92.922 47.055 C 93.012 47.145,93.409 46.179,93.806 44.909 C 94.202 43.639,94.776 42.215,95.081 41.743 C 95.469 41.144,95.594 39.944,95.498 37.743 L 95.361 34.600 95.280 37.876 M285.067 36.667 C 284.920 36.813,284.800 37.722,284.800 38.687 C 284.800 39.651,284.524 40.973,284.187 41.625 C 283.498 42.958,282.875 45.532,282.451 48.800 C 282.294 50.010,281.943 51.402,281.672 51.894 C 281.045 53.029,280.389 56.454,280.853 56.167 C 281.044 56.049,281.200 55.534,281.200 55.022 C 281.200 53.996,282.149 51.483,282.431 51.764 C 282.528 51.861,282.660 50.919,282.724 49.671 C 282.788 48.422,283.005 46.860,283.206 46.200 C 283.407 45.540,283.669 44.518,283.787 43.928 C 283.905 43.338,284.302 42.555,284.670 42.187 C 285.179 41.678,285.814 36.407,285.367 36.400 C 285.348 36.400,285.213 36.520,285.067 36.667 M145.067 41.067 C 144.920 41.213,144.800 41.726,144.800 42.205 C 144.800 42.685,144.495 43.689,144.122 44.437 C 143.372 45.940,142.739 49.285,143.266 48.959 C 143.450 48.846,143.600 48.304,143.600 47.757 C 143.600 47.209,143.876 46.227,144.213 45.575 C 144.726 44.583,145.678 40.800,145.415 40.800 C 145.370 40.800,145.213 40.920,145.067 41.067 M92.003 49.445 C 91.536 50.732,90.888 52.244,90.353 53.295 C 90.159 53.677,90.000 54.414,90.000 54.933 C 90.000 55.452,89.731 56.416,89.403 57.074 C 89.075 57.732,88.710 58.885,88.592 59.635 C 88.450 60.542,88.628 60.261,89.122 58.800 C 89.530 57.590,90.043 56.634,90.260 56.676 C 90.479 56.718,90.576 56.216,90.477 55.543 C 90.379 54.879,90.484 53.945,90.710 53.467 C 92.120 50.487,92.818 48.685,92.634 48.501 C 92.518 48.384,92.234 48.809,92.003 49.445 M197.507 49.490 C 198.226 49.579,199.306 49.577,199.907 49.486 C 200.508 49.395,199.920 49.322,198.600 49.324 C 197.280 49.326,196.788 49.401,197.507 49.490 M205.507 49.490 C 206.226 49.579,207.306 49.577,207.907 49.486 C 208.508 49.395,207.920 49.322,206.600 49.324 C 205.280 49.326,204.788 49.401,205.507 49.490 M213.000 50.560 C 213.880 50.838,215.202 51.379,215.937 51.762 C 216.673 52.145,217.351 52.382,217.445 52.288 C 217.716 52.018,212.984 49.997,212.150 50.027 C 211.737 50.041,212.120 50.281,213.000 50.560 M189.800 51.263 C 187.966 52.211,186.112 53.835,185.534 55.000 C 185.316 55.440,185.736 55.126,186.468 54.303 C 187.201 53.479,188.790 52.267,190.000 51.610 C 192.465 50.271,192.294 49.973,189.800 51.263 M332.249 51.415 C 332.112 51.773,332.018 52.456,332.041 52.933 C 332.067 53.481,332.203 53.286,332.410 52.403 C 332.760 50.916,332.665 50.333,332.249 51.415 M141.236 52.926 C 140.776 53.876,140.399 54.911,140.398 55.226 C 140.397 55.542,139.931 57.060,139.363 58.600 C 138.794 60.140,138.260 61.940,138.176 62.600 L 138.022 63.800 138.342 62.600 C 138.517 61.940,138.900 60.954,139.193 60.409 C 139.486 59.865,139.877 58.830,140.063 58.109 C 140.838 55.099,141.145 54.124,141.761 52.700 C 142.655 50.637,142.262 50.806,141.236 52.926 M218.000 52.540 C 218.000 52.617,218.862 53.216,219.915 53.871 C 222.072 55.212,224.498 58.541,225.481 61.509 C 225.825 62.549,226.262 63.571,226.453 63.780 C 226.644 63.989,226.803 64.619,226.806 65.180 C 226.809 65.741,226.984 66.470,227.195 66.800 C 228.065 68.164,227.028 64.032,225.732 60.970 C 223.955 56.770,218.000 50.278,218.000 52.540 M331.216 54.958 C 331.016 55.485,330.684 55.980,330.480 56.058 C 330.275 56.136,330.222 56.520,330.363 56.912 C 330.557 57.452,330.781 57.187,331.290 55.812 C 331.660 54.815,331.876 54.000,331.771 54.000 C 331.666 54.000,331.416 54.431,331.216 54.958 M184.240 56.900 C 183.922 57.395,183.348 58.520,182.964 59.400 C 182.580 60.280,181.936 61.732,181.533 62.626 C 181.130 63.521,180.800 64.545,180.800 64.903 C 180.800 65.260,180.620 65.664,180.400 65.800 C 180.180 65.936,180.000 66.251,180.000 66.500 C 180.000 67.159,181.172 65.507,181.187 64.826 C 181.202 64.168,182.298 61.624,184.001 58.300 C 185.185 55.987,185.316 55.226,184.240 56.900 M329.614 61.574 C 329.386 61.999,329.218 62.764,329.241 63.274 C 329.274 64.017,329.340 63.956,329.577 62.965 C 329.739 62.286,330.002 61.521,330.160 61.265 C 330.318 61.009,330.353 60.800,330.238 60.800 C 330.122 60.800,329.842 61.148,329.614 61.574 M87.843 61.833 C 87.709 62.181,87.600 63.074,87.600 63.818 C 87.600 64.562,87.233 66.100,86.785 67.237 C 86.337 68.374,86.049 69.383,86.145 69.479 C 86.242 69.575,86.532 69.012,86.791 68.227 C 87.050 67.442,87.383 66.800,87.531 66.800 C 87.679 66.800,87.852 65.855,87.916 64.700 C 87.980 63.545,88.127 62.285,88.243 61.900 C 88.506 61.028,88.173 60.972,87.843 61.833 M279.066 62.911 C 278.542 64.281,278.531 64.453,279.010 63.824 C 279.334 63.396,279.600 62.826,279.600 62.557 C 279.600 62.287,279.816 61.995,280.080 61.907 C 280.404 61.799,280.423 61.661,280.137 61.484 C 279.890 61.332,279.442 61.929,279.066 62.911 M137.399 66.300 C 137.124 68.391,136.065 71.200,135.552 71.200 C 135.372 71.200,135.340 71.498,135.479 71.863 C 135.666 72.348,135.967 71.998,136.603 70.557 C 137.405 68.740,138.275 64.400,137.838 64.400 C 137.734 64.400,137.537 65.255,137.399 66.300 M328.329 65.870 C 327.593 67.602,327.177 70.062,327.672 69.755 C 327.853 69.644,328.000 69.017,328.000 68.362 C 328.000 67.708,328.287 66.734,328.638 66.199 C 328.988 65.664,329.209 65.026,329.128 64.783 C 329.047 64.540,328.687 65.029,328.329 65.870 M278.046 65.067 C 278.021 65.324,277.884 65.864,277.741 66.267 C 277.540 66.836,277.594 66.897,277.979 66.542 C 278.252 66.291,278.389 65.751,278.284 65.342 C 278.179 64.934,278.072 64.810,278.046 65.067 M277.254 67.856 C 277.225 68.327,276.844 69.497,276.409 70.456 C 275.974 71.415,275.632 72.650,275.649 73.200 C 275.672 73.938,275.774 73.804,276.037 72.687 C 276.233 71.855,276.675 70.628,277.021 69.960 C 277.366 69.292,277.572 68.353,277.479 67.873 L 277.309 67.000 277.254 67.856 M227.564 74.600 C 227.436 78.560,227.195 82.340,227.029 83.000 C 226.610 84.663,225.622 86.800,225.271 86.800 C 225.110 86.800,225.046 87.499,225.127 88.353 C 225.208 89.208,225.078 90.028,224.838 90.177 C 224.597 90.326,224.400 90.651,224.400 90.900 C 224.400 91.149,224.664 91.004,224.987 90.576 C 225.310 90.149,225.580 89.339,225.587 88.775 C 225.594 88.211,225.960 87.005,226.400 86.094 C 226.840 85.184,227.200 84.058,227.200 83.593 C 227.200 83.128,227.384 82.403,227.609 81.982 C 227.857 81.520,227.975 78.479,227.909 74.309 L 227.798 67.400 227.564 74.600 M179.203 69.845 C 178.972 70.480,178.622 71.360,178.424 71.800 C 177.872 73.029,177.513 75.534,177.994 74.800 C 178.211 74.470,178.391 73.829,178.394 73.375 C 178.397 72.921,178.773 71.779,179.228 70.836 C 179.683 69.894,179.958 69.025,179.839 68.906 C 179.720 68.787,179.434 69.209,179.203 69.845 M326.846 70.914 C 326.806 71.540,325.800 73.435,325.209 74.000 C 325.094 74.110,325.107 75.100,325.237 76.200 L 325.474 78.200 325.537 76.484 C 325.572 75.540,325.971 74.042,326.424 73.154 C 326.876 72.266,327.167 71.238,327.070 70.870 C 326.914 70.280,326.887 70.286,326.846 70.914 M84.865 74.439 C 84.829 75.450,84.520 76.839,84.177 77.526 C 83.834 78.213,83.480 79.456,83.390 80.288 C 83.262 81.477,83.297 81.586,83.553 80.800 C 84.348 78.355,84.515 78.000,84.870 78.000 C 85.078 78.000,85.145 77.835,85.021 77.634 C 84.897 77.433,84.931 77.208,85.098 77.134 C 85.264 77.060,85.294 76.010,85.165 74.800 L 84.930 72.600 84.865 74.439 M274.709 77.300 C 274.618 78.455,274.239 80.075,273.867 80.900 C 273.494 81.725,273.291 82.400,273.415 82.400 C 273.540 82.400,273.830 81.860,274.060 81.200 C 274.290 80.541,274.612 80.084,274.776 80.185 C 274.941 80.287,275.113 79.207,275.159 77.785 C 275.259 74.683,274.942 74.341,274.709 77.300 M134.882 77.146 C 134.617 78.056,134.189 79.526,133.932 80.413 C 133.672 81.308,133.340 81.827,133.187 81.580 C 132.693 80.780,132.518 82.087,132.810 84.400 L 133.087 86.600 133.144 84.775 C 133.175 83.771,133.560 82.205,134.000 81.294 C 134.440 80.384,134.800 79.258,134.800 78.793 C 134.800 78.328,134.992 77.589,135.226 77.152 C 135.460 76.714,135.587 76.161,135.508 75.924 C 135.429 75.686,135.147 76.236,134.882 77.146 M177.260 79.476 C 177.227 81.058,177.035 82.455,176.834 82.579 C 176.395 82.850,174.800 87.656,174.800 88.707 C 174.800 89.114,174.536 89.796,174.213 90.224 C 173.890 90.651,173.620 91.270,173.614 91.600 C 173.608 91.930,173.962 91.611,174.401 90.890 C 174.841 90.170,175.202 89.180,175.205 88.690 C 175.212 87.387,176.977 82.589,177.421 82.667 C 177.631 82.704,177.749 81.816,177.686 80.667 C 177.482 76.985,177.321 76.535,177.260 79.476 M323.277 83.700 C 322.840 84.635,322.387 85.850,322.269 86.400 C 321.710 89.019,321.227 90.500,320.640 91.395 C 320.173 92.108,320.018 93.214,320.068 95.486 L 320.135 98.600 320.369 95.400 C 320.498 93.640,320.856 91.754,321.164 91.209 C 321.473 90.665,321.877 89.630,322.063 88.909 C 322.838 85.899,323.145 84.924,323.761 83.500 C 324.654 81.438,324.257 81.602,323.277 83.700 M82.471 84.600 C 82.429 85.747,81.886 87.854,81.199 89.541 C 80.539 91.159,80.014 92.779,80.032 93.141 C 80.057 93.681,80.099 93.691,80.261 93.200 C 80.370 92.870,80.601 92.240,80.776 91.800 C 82.636 87.109,82.837 86.348,82.695 84.536 L 82.544 82.600 82.471 84.600 M272.414 84.374 C 272.186 84.799,272.000 85.492,272.000 85.912 C 272.000 86.333,271.720 87.239,271.377 87.926 C 271.034 88.613,270.680 89.856,270.589 90.688 C 270.499 91.519,270.519 91.840,270.633 91.400 C 270.852 90.558,271.453 89.072,272.047 87.905 C 272.241 87.523,272.400 86.747,272.400 86.179 C 272.400 85.612,272.586 84.799,272.814 84.374 C 273.042 83.948,273.138 83.600,273.028 83.600 C 272.918 83.600,272.642 83.948,272.414 84.374 M132.156 87.371 C 132.035 87.685,132.004 88.360,132.086 88.871 C 132.195 89.554,132.288 89.404,132.437 88.300 C 132.647 86.747,132.536 86.381,132.156 87.371 M131.232 90.471 C 131.214 90.841,130.929 91.414,130.597 91.746 C 130.222 92.121,130.147 92.443,130.398 92.599 C 130.853 92.880,131.725 90.917,131.445 90.239 C 131.345 89.998,131.249 90.102,131.232 90.471 M223.436 93.500 C 223.276 93.995,222.993 94.400,222.806 94.400 C 222.619 94.400,222.406 95.643,222.333 97.163 C 222.260 98.683,222.335 99.842,222.500 99.740 C 222.665 99.637,222.800 98.613,222.800 97.465 C 222.800 96.213,223.052 95.018,223.430 94.479 C 223.776 93.984,223.985 93.359,223.893 93.090 C 223.801 92.820,223.595 93.005,223.436 93.500 M269.599 96.300 C 269.598 98.829,269.374 99.949,268.384 102.377 C 267.717 104.014,267.227 105.634,267.295 105.977 C 267.362 106.320,267.832 105.295,268.337 103.700 C 268.842 102.105,269.400 100.800,269.577 100.800 C 269.754 100.800,269.930 99.090,269.969 97.000 C 270.008 94.910,269.941 93.200,269.820 93.200 C 269.699 93.200,269.599 94.595,269.599 96.300 M172.488 95.301 C 172.243 95.795,171.963 97.010,171.868 98.000 C 171.772 98.990,171.224 101.060,170.649 102.600 C 170.074 104.140,169.603 105.861,169.602 106.424 C 169.601 106.986,169.336 107.796,169.013 108.224 C 168.690 108.651,168.426 109.270,168.427 109.600 C 168.428 109.970,168.623 109.850,168.935 109.287 C 169.214 108.786,169.522 108.455,169.621 108.553 C 169.719 108.651,169.848 107.982,169.906 107.066 C 169.964 106.150,170.189 104.905,170.406 104.300 C 171.462 101.352,171.715 100.824,171.989 100.993 C 172.151 101.094,172.318 99.976,172.358 98.510 C 172.398 97.044,172.630 95.605,172.873 95.312 C 173.115 95.020,173.229 94.695,173.124 94.591 C 173.020 94.487,172.734 94.806,172.488 95.301 M78.858 96.456 C 78.425 97.415,77.969 98.920,77.845 99.800 C 77.685 100.932,77.725 101.166,77.981 100.600 C 78.181 100.160,78.356 99.400,78.372 98.912 C 78.387 98.424,78.769 97.368,79.220 96.565 C 79.670 95.763,79.951 95.017,79.842 94.909 C 79.734 94.801,79.291 95.497,78.858 96.456 M319.449 99.815 C 319.312 100.173,319.221 100.946,319.246 101.533 C 319.280 102.332,319.370 102.198,319.604 101.000 C 319.935 99.300,319.862 98.740,319.449 99.815 M128.634 101.106 C 128.470 101.614,128.152 101.894,127.909 101.744 C 127.671 101.597,127.574 101.639,127.694 101.838 C 127.814 102.037,127.782 103.047,127.622 104.083 C 127.463 105.118,127.482 105.873,127.666 105.759 C 127.850 105.646,128.000 104.973,128.000 104.265 C 128.000 103.557,128.283 102.573,128.630 102.079 C 128.976 101.584,129.185 100.959,129.093 100.690 C 129.001 100.420,128.794 100.608,128.634 101.106 M221.660 101.316 C 221.627 101.930,221.240 103.138,220.800 104.000 C 220.360 104.862,220.018 105.980,220.041 106.484 C 220.074 107.229,220.136 107.176,220.374 106.200 C 220.535 105.540,220.977 104.403,221.357 103.673 C 221.737 102.944,221.974 101.864,221.884 101.273 L 221.720 100.200 221.660 101.316 M77.246 103.116 C 77.221 104.060,76.840 105.538,76.400 106.400 C 75.960 107.262,75.614 108.290,75.632 108.684 C 75.656 109.227,75.711 109.255,75.859 108.800 C 76.417 107.088,77.343 105.241,77.572 105.383 C 77.716 105.471,77.770 104.882,77.693 104.072 C 77.464 101.654,77.296 101.293,77.246 103.116 M318.432 103.271 C 318.414 103.641,318.129 104.214,317.797 104.546 C 317.422 104.921,317.347 105.243,317.598 105.399 C 318.053 105.680,318.925 103.717,318.645 103.039 C 318.545 102.798,318.449 102.902,318.432 103.271 M126.098 108.537 C 125.601 109.672,125.204 110.960,125.215 111.400 C 125.235 112.177,125.377 111.878,126.798 108.080 C 127.594 105.953,127.082 106.287,126.098 108.537 M266.089 108.879 C 265.243 110.693,264.506 114.297,265.205 113.200 C 265.416 112.870,265.591 112.188,265.594 111.684 C 265.597 111.180,265.973 110.038,266.428 109.145 C 266.883 108.253,267.174 107.441,267.074 107.340 C 266.974 107.240,266.530 107.933,266.089 108.879 M75.020 110.100 C 74.935 110.375,74.783 111.050,74.682 111.600 C 74.582 112.150,74.205 113.275,73.844 114.100 C 73.484 114.925,73.266 115.600,73.359 115.600 C 73.710 115.600,75.129 112.148,75.292 110.900 C 75.462 109.599,75.312 109.159,75.020 110.100 M218.340 111.200 C 218.110 111.860,217.749 112.400,217.537 112.400 C 217.326 112.400,217.274 112.596,217.422 112.835 C 217.793 113.436,218.338 112.809,218.779 111.273 C 219.242 109.659,218.897 109.602,218.340 111.200 M315.808 113.976 C 315.661 114.438,315.349 114.692,315.109 114.544 C 314.871 114.397,314.774 114.439,314.894 114.638 C 315.014 114.837,314.982 115.847,314.822 116.883 C 314.663 117.918,314.682 118.673,314.866 118.559 C 315.050 118.446,315.200 117.814,315.200 117.157 C 315.200 116.499,315.483 115.412,315.829 114.743 C 316.176 114.073,316.372 113.439,316.266 113.333 C 316.160 113.227,315.954 113.516,315.808 113.976 M264.400 115.911 C 264.400 116.962,264.151 118.178,263.846 118.613 C 263.256 119.455,262.245 122.688,262.719 122.215 C 262.874 122.061,263.194 121.274,263.431 120.467 C 263.668 119.660,264.033 119.032,264.242 119.070 C 264.450 119.109,264.673 117.984,264.736 116.570 C 264.800 115.157,264.750 114.000,264.626 114.000 C 264.502 114.000,264.400 114.860,264.400 115.911 M123.270 116.731 C 122.583 118.251,122.415 119.323,122.469 121.828 L 122.538 125.000 122.792 121.600 C 122.931 119.730,123.360 117.506,123.746 116.657 C 124.131 115.808,124.378 115.044,124.293 114.960 C 124.209 114.875,123.748 115.673,123.270 116.731 M166.272 115.986 C 165.511 117.274,164.703 120.907,165.253 120.567 C 165.444 120.449,165.600 119.947,165.600 119.452 C 165.600 118.956,165.973 117.779,166.428 116.836 C 167.387 114.852,167.281 114.278,166.272 115.986 M216.830 118.098 C 216.556 119.034,215.976 120.730,215.541 121.867 C 215.041 123.176,214.808 124.570,214.906 125.667 C 215.059 127.384,215.061 127.381,215.130 125.324 C 215.169 124.182,215.355 123.151,215.545 123.034 C 215.735 122.917,216.112 121.961,216.383 120.910 C 216.655 119.860,217.064 118.499,217.292 117.887 C 217.521 117.275,217.623 116.689,217.519 116.585 C 217.414 116.481,217.105 117.162,216.830 118.098 M72.054 122.411 C 72.018 124.671,71.804 126.102,71.418 126.653 C 70.855 127.457,69.852 132.385,70.184 132.717 C 70.274 132.808,70.460 132.188,70.597 131.341 C 71.046 128.563,71.195 128.062,71.733 127.524 C 72.025 127.232,72.181 126.744,72.080 126.441 C 71.979 126.137,72.060 125.990,72.259 126.113 C 72.468 126.242,72.568 125.120,72.493 123.469 C 72.294 119.071,72.115 118.637,72.054 122.411 M313.298 121.337 C 312.801 122.472,312.404 123.760,312.415 124.200 C 312.435 124.977,312.577 124.678,313.998 120.880 C 314.794 118.753,314.282 119.087,313.298 121.337 M164.400 124.474 C 164.400 126.848,164.192 128.194,163.642 129.374 C 162.817 131.143,162.248 134.541,162.838 134.176 C 163.037 134.053,163.200 133.345,163.200 132.602 C 163.200 130.949,163.870 129.073,164.354 129.371 C 164.551 129.493,164.737 127.723,164.771 125.396 C 164.804 123.088,164.735 121.200,164.616 121.200 C 164.497 121.200,164.400 122.673,164.400 124.474 M121.789 126.300 C 121.264 128.862,120.741 130.411,120.462 130.238 C 120.297 130.136,120.146 131.256,120.125 132.727 L 120.087 135.400 120.400 133.200 C 120.572 131.990,120.978 130.370,121.303 129.600 C 121.896 128.193,122.494 125.200,122.182 125.200 C 122.090 125.200,121.914 125.695,121.789 126.300 M260.911 127.103 C 259.607 130.088,258.805 134.565,259.457 135.217 C 259.648 135.408,259.820 134.637,259.845 133.480 C 259.900 130.973,260.220 129.563,261.260 127.256 C 261.692 126.297,261.977 125.443,261.893 125.359 C 261.809 125.275,261.367 126.060,260.911 127.103 M310.488 129.578 C 309.850 130.969,309.600 132.272,309.600 134.210 C 309.600 135.694,309.420 137.603,309.200 138.454 C 308.980 139.304,308.611 140.725,308.380 141.612 C 308.150 142.498,307.810 143.130,307.626 143.016 C 307.441 142.902,307.068 143.077,306.796 143.404 C 306.479 143.786,306.456 144.000,306.730 144.000 C 306.966 144.000,307.224 144.945,307.305 146.100 L 307.452 148.200 307.526 146.086 C 307.567 144.923,307.869 143.561,308.199 143.058 C 308.998 141.838,309.596 138.969,309.961 134.600 C 310.126 132.620,310.573 130.306,310.954 129.457 C 311.335 128.608,311.586 127.853,311.511 127.778 C 311.437 127.703,310.976 128.513,310.488 129.578 M214.054 129.825 C 214.025 130.498,213.685 131.398,213.300 131.825 C 212.804 132.374,212.580 133.358,212.533 135.200 C 212.466 137.766,212.469 137.774,212.763 135.800 C 212.927 134.700,213.376 133.048,213.762 132.129 C 214.148 131.211,214.384 130.041,214.286 129.529 C 214.143 128.778,214.099 128.835,214.054 129.825 M69.660 134.420 C 69.627 135.201,69.449 136.011,69.265 136.220 C 68.890 136.645,67.195 141.280,67.209 141.841 C 67.220 142.266,67.943 140.673,69.170 137.523 C 69.658 136.270,69.982 134.740,69.889 134.123 C 69.741 133.139,69.712 133.175,69.660 134.420 M119.467 135.867 C 119.320 136.013,119.200 136.520,119.200 136.992 C 119.200 137.464,118.827 138.621,118.372 139.564 C 117.917 140.506,117.642 141.375,117.761 141.494 C 117.880 141.613,118.166 141.191,118.397 140.555 C 118.628 139.920,118.979 139.040,119.178 138.600 C 119.512 137.861,119.989 135.600,119.811 135.600 C 119.768 135.600,119.613 135.720,119.467 135.867 M258.370 136.676 C 257.857 138.021,257.205 141.339,257.414 141.547 C 257.495 141.628,257.668 141.178,257.799 140.547 C 258.379 137.746,258.867 136.394,259.220 136.612 C 259.429 136.741,259.600 136.667,259.600 136.447 C 259.600 135.493,258.762 135.649,258.370 136.676 M160.467 141.088 C 159.770 142.896,159.200 144.702,159.200 145.103 C 159.200 145.503,158.840 146.537,158.400 147.400 C 157.960 148.263,157.600 149.280,157.600 149.661 C 157.600 150.041,157.420 150.464,157.200 150.600 C 156.980 150.736,156.800 151.427,156.800 152.135 C 156.800 152.843,156.558 153.777,156.262 154.211 C 155.747 154.967,155.138 156.800,155.402 156.800 C 155.795 156.800,157.200 153.160,157.200 152.140 C 157.200 151.477,157.322 150.812,157.471 150.663 C 157.620 150.514,158.028 149.539,158.379 148.496 C 158.730 147.453,159.212 146.636,159.449 146.680 C 159.696 146.726,159.806 146.366,159.705 145.838 C 159.522 144.879,160.362 142.008,161.430 139.942 C 161.770 139.284,161.978 138.534,161.891 138.274 C 161.805 138.015,161.164 139.281,160.467 141.088 M211.067 141.067 C 210.920 141.213,210.800 141.641,210.800 142.018 C 210.800 142.394,210.530 142.926,210.200 143.200 C 209.858 143.484,209.600 144.356,209.600 145.225 C 209.600 146.065,209.420 146.864,209.200 147.000 C 208.980 147.136,208.800 147.559,208.800 147.939 C 208.800 148.320,208.440 149.337,208.000 150.200 C 207.560 151.063,207.221 152.136,207.247 152.585 C 207.287 153.265,207.340 153.235,207.568 152.400 C 207.718 151.850,208.147 150.731,208.520 149.913 C 208.894 149.095,209.200 148.161,209.200 147.836 C 209.200 147.512,209.380 147.136,209.600 147.000 C 209.820 146.864,210.000 146.173,210.000 145.465 C 210.000 144.757,210.242 143.823,210.538 143.389 C 211.021 142.680,211.668 140.800,211.429 140.800 C 211.376 140.800,211.213 140.920,211.067 141.067 M256.880 144.867 C 256.827 146.906,256.528 148.567,255.990 149.823 C 254.908 152.347,255.219 152.527,256.348 150.030 C 257.077 148.417,257.210 147.509,257.098 144.934 L 256.961 141.800 256.880 144.867 M66.372 144.248 C 66.120 144.882,65.753 145.713,65.557 146.095 C 65.361 146.477,65.206 147.017,65.214 147.295 C 65.222 147.573,65.680 146.833,66.232 145.652 C 66.785 144.470,67.145 143.412,67.033 143.300 C 66.921 143.188,66.624 143.615,66.372 144.248 M116.885 144.413 C 116.618 144.840,116.400 145.419,116.400 145.700 C 116.400 145.982,116.040 146.884,115.600 147.704 C 115.160 148.525,114.797 149.513,114.794 149.899 C 114.787 150.741,113.797 153.658,112.985 155.228 C 112.640 155.897,112.425 157.311,112.461 158.680 L 112.522 161.000 112.813 158.600 C 112.972 157.280,113.574 154.940,114.150 153.400 C 114.725 151.860,115.197 150.323,115.198 149.985 C 115.199 149.646,115.560 148.663,116.000 147.800 C 116.440 146.937,116.800 145.945,116.800 145.595 C 116.800 145.246,117.013 144.747,117.273 144.487 C 117.534 144.226,117.662 143.929,117.558 143.825 C 117.455 143.721,117.152 143.986,116.885 144.413 M64.667 148.267 C 64.520 148.413,64.400 149.052,64.400 149.687 C 64.400 150.321,64.117 151.388,63.771 152.057 C 63.424 152.727,63.228 153.361,63.334 153.467 C 63.440 153.573,63.646 153.284,63.792 152.824 C 63.939 152.362,64.251 152.108,64.491 152.256 C 64.729 152.403,64.826 152.361,64.706 152.162 C 64.586 151.963,64.620 150.945,64.781 149.900 C 65.090 147.893,65.086 147.847,64.667 148.267 M306.667 148.667 C 306.520 148.813,306.400 149.320,306.400 149.792 C 306.400 150.264,306.027 151.421,305.572 152.364 C 305.117 153.306,304.842 154.175,304.961 154.294 C 305.080 154.413,305.366 153.991,305.597 153.355 C 305.828 152.720,306.179 151.840,306.378 151.400 C 306.712 150.661,307.189 148.400,307.011 148.400 C 306.968 148.400,306.813 148.520,306.667 148.667 M206.629 154.626 C 206.483 155.210,205.988 156.485,205.530 157.460 C 205.072 158.434,204.791 159.324,204.905 159.438 C 205.018 159.552,205.610 158.374,206.220 156.820 C 206.830 155.266,207.231 153.898,207.112 153.779 C 206.993 153.660,206.776 154.041,206.629 154.626 M254.054 155.256 C 254.025 155.617,253.644 156.697,253.209 157.656 C 252.774 158.615,252.415 159.670,252.413 160.000 C 252.410 160.330,252.864 159.620,253.422 158.422 C 253.979 157.224,254.362 155.874,254.272 155.422 C 254.164 154.880,254.090 154.823,254.054 155.256 M303.867 157.467 C 303.720 157.613,303.600 158.021,303.600 158.373 C 303.600 158.724,303.240 159.684,302.800 160.504 C 302.360 161.325,301.997 162.313,301.994 162.699 C 301.987 163.541,300.997 166.458,300.185 168.028 C 299.863 168.651,299.618 169.664,299.641 170.280 L 299.682 171.400 300.013 170.200 C 300.195 169.540,300.806 167.740,301.370 166.200 C 301.935 164.660,302.397 163.031,302.398 162.580 C 302.399 162.129,302.590 161.570,302.822 161.338 C 303.212 160.948,304.503 157.200,304.248 157.200 C 304.185 157.200,304.013 157.320,303.867 157.467 M154.066 163.392 C 154.028 165.014,153.681 167.026,153.238 168.192 C 152.433 170.314,151.600 174.336,151.600 176.100 C 151.600 176.679,151.435 177.255,151.234 177.379 C 150.816 177.637,149.074 182.808,149.321 183.055 C 149.410 183.144,149.881 181.956,150.367 180.416 C 150.853 178.876,151.420 177.512,151.626 177.384 C 151.831 177.257,152.000 176.679,152.000 176.100 C 152.000 174.645,152.810 170.349,153.243 169.505 C 153.439 169.123,153.600 168.547,153.600 168.225 C 153.600 167.903,153.828 167.496,154.106 167.320 C 154.480 167.084,154.550 166.163,154.373 163.800 L 154.132 160.600 154.066 163.392 M251.867 161.067 C 251.720 161.213,251.600 161.899,251.600 162.590 C 251.600 163.281,251.336 164.196,251.013 164.624 C 250.690 165.051,250.426 165.670,250.427 166.000 C 250.428 166.370,250.623 166.250,250.935 165.687 C 251.214 165.186,251.596 164.916,251.785 165.087 C 251.974 165.259,252.029 165.220,251.908 165.000 C 251.787 164.780,251.820 163.745,251.981 162.700 C 252.290 160.693,252.286 160.647,251.867 161.067 M61.186 162.237 C 60.959 162.833,60.855 163.519,60.955 163.761 C 61.055 164.002,61.151 163.898,61.168 163.529 C 61.186 163.159,61.471 162.586,61.803 162.254 C 62.178 161.879,62.253 161.557,62.002 161.401 C 61.780 161.264,61.413 161.640,61.186 162.237 M60.064 165.267 C 60.029 165.854,59.884 166.664,59.741 167.067 C 59.543 167.629,59.596 167.695,59.970 167.351 C 60.244 167.099,60.386 166.309,60.293 165.551 C 60.159 164.453,60.116 164.400,60.064 165.267 M110.809 167.773 C 110.550 168.558,110.217 169.200,110.069 169.200 C 109.921 169.200,109.748 170.145,109.684 171.300 C 109.620 172.455,109.473 173.760,109.358 174.200 C 109.187 174.850,109.226 174.888,109.568 174.400 C 109.799 174.070,109.991 173.132,109.994 172.315 C 109.997 171.498,110.367 169.900,110.815 168.763 C 111.263 167.626,111.551 166.617,111.455 166.521 C 111.358 166.425,111.068 166.988,110.809 167.773 M203.789 167.500 C 203.264 170.062,202.741 171.611,202.462 171.438 C 202.297 171.336,202.146 172.456,202.125 173.927 L 202.087 176.600 202.400 174.400 C 202.572 173.190,202.978 171.570,203.303 170.800 C 203.896 169.393,204.494 166.400,204.182 166.400 C 204.090 166.400,203.914 166.895,203.789 167.500 M59.159 171.400 C 59.013 173.389,58.523 175.660,57.864 177.400 C 57.281 178.940,56.803 180.565,56.802 181.011 C 56.801 181.457,56.560 182.177,56.266 182.611 C 55.680 183.478,55.140 184.800,55.372 184.800 C 55.674 184.800,57.200 181.550,57.210 180.888 C 57.223 179.948,58.698 175.604,59.216 174.981 C 59.455 174.693,59.583 173.125,59.515 171.338 L 59.395 168.200 59.159 171.400 M248.051 175.548 C 247.554 176.912,247.228 178.337,247.327 178.714 C 247.463 179.232,247.519 179.188,247.554 178.533 C 247.579 178.056,247.966 176.813,248.413 175.771 C 248.859 174.728,249.164 173.693,249.090 173.471 C 249.016 173.249,248.549 174.183,248.051 175.548 M108.366 177.322 C 108.030 178.465,107.585 179.370,107.378 179.333 C 107.170 179.297,107.000 180.044,107.000 180.995 C 107.000 181.946,107.135 182.640,107.300 182.538 C 107.465 182.436,107.600 181.744,107.600 181.000 C 107.600 180.256,107.755 179.551,107.945 179.434 C 108.343 179.188,109.394 175.660,109.144 175.410 C 109.052 175.319,108.702 176.179,108.366 177.322 M298.005 177.587 C 297.729 178.254,297.368 178.800,297.202 178.800 C 297.037 178.800,296.869 180.543,296.830 182.673 C 296.790 184.803,296.649 186.720,296.517 186.934 C 296.384 187.150,296.483 187.196,296.738 187.038 C 297.024 186.862,297.200 185.554,297.200 183.610 C 297.200 181.342,297.426 179.940,298.010 178.577 C 298.456 177.537,298.750 176.616,298.664 176.531 C 298.578 176.445,298.282 176.920,298.005 177.587 M201.467 177.067 C 201.320 177.213,201.200 177.762,201.200 178.287 C 201.200 178.811,200.898 179.816,200.529 180.520 C 199.789 181.932,199.137 185.286,199.666 184.959 C 199.850 184.846,200.000 184.304,200.000 183.757 C 200.000 183.209,200.276 182.227,200.613 181.575 C 201.126 180.583,202.078 176.800,201.815 176.800 C 201.770 176.800,201.613 176.920,201.467 177.067 M246.477 184.192 C 246.410 186.268,245.529 189.381,244.353 191.695 C 244.159 192.077,244.000 192.892,244.000 193.506 C 244.000 194.120,243.760 194.977,243.466 195.411 C 242.880 196.278,242.340 197.600,242.572 197.600 C 242.991 197.600,244.400 194.216,244.400 193.211 C 244.400 192.571,244.580 191.936,244.800 191.800 C 245.020 191.664,245.200 191.260,245.200 190.903 C 245.200 190.545,245.569 189.490,246.020 188.559 C 246.651 187.256,246.807 186.281,246.697 184.333 L 246.554 181.800 246.477 184.192 M106.062 184.521 C 105.779 185.225,105.367 186.133,105.146 186.539 C 104.925 186.945,104.840 187.374,104.957 187.491 C 105.074 187.608,105.379 187.185,105.635 186.552 C 105.890 185.918,106.287 184.995,106.517 184.501 C 106.747 184.006,106.854 183.521,106.755 183.422 C 106.657 183.324,106.345 183.818,106.062 184.521 M148.372 185.448 C 148.120 186.082,147.753 186.913,147.557 187.295 C 147.361 187.677,147.204 188.217,147.209 188.495 C 147.214 188.773,147.500 188.370,147.845 187.600 C 148.190 186.830,148.649 185.867,148.864 185.461 C 149.079 185.055,149.160 184.626,149.043 184.509 C 148.926 184.392,148.624 184.815,148.372 185.448 M54.267 187.067 C 54.120 187.213,54.000 187.762,54.000 188.287 C 54.000 188.811,53.724 189.773,53.387 190.425 C 52.661 191.830,51.952 195.277,52.453 194.967 C 52.644 194.849,52.800 194.341,52.800 193.838 C 52.800 193.335,53.105 192.311,53.478 191.563 C 54.022 190.474,54.889 186.800,54.603 186.800 C 54.565 186.800,54.413 186.920,54.267 187.067 M198.000 188.200 C 197.791 188.750,197.465 189.200,197.276 189.200 C 197.086 189.200,196.891 190.312,196.842 191.670 C 196.793 193.029,196.584 194.457,196.376 194.844 C 196.169 195.231,196.000 195.928,196.000 196.393 C 196.000 196.858,195.640 197.984,195.200 198.894 C 194.760 199.805,194.421 200.921,194.446 201.375 C 194.492 202.177,194.498 202.178,194.674 201.400 C 194.773 200.960,195.143 199.970,195.497 199.200 C 196.287 197.476,196.782 195.351,197.137 192.156 C 197.287 190.812,197.604 189.462,197.842 189.156 C 198.369 188.480,198.850 187.200,198.578 187.200 C 198.469 187.200,198.209 187.650,198.000 188.200 M296.060 188.451 C 295.984 189.789,294.868 192.489,294.488 192.254 C 294.330 192.156,294.200 192.852,294.200 193.800 C 294.200 194.748,294.335 195.440,294.500 195.338 C 294.665 195.236,294.800 194.657,294.800 194.052 C 294.800 193.446,295.171 192.183,295.624 191.245 C 296.077 190.308,296.374 189.059,296.284 188.470 L 296.120 187.400 296.060 188.451 M103.633 191.584 C 103.147 193.124,102.580 194.488,102.374 194.616 C 102.169 194.743,102.027 195.602,102.060 196.524 C 102.106 197.810,102.155 197.921,102.270 197.000 C 102.353 196.340,102.753 194.990,103.160 194.000 C 104.211 191.442,104.904 189.170,104.695 188.962 C 104.597 188.864,104.119 190.044,103.633 191.584 M146.667 189.467 C 146.520 189.613,146.400 190.210,146.400 190.792 C 146.400 191.374,146.040 192.595,145.600 193.506 C 145.160 194.416,144.821 195.665,144.846 196.281 C 144.888 197.305,144.917 197.281,145.191 196.000 C 145.619 193.996,146.349 192.321,146.699 192.538 C 146.865 192.640,147.000 191.931,147.000 190.962 C 147.000 189.993,146.985 189.200,146.967 189.200 C 146.948 189.200,146.813 189.320,146.667 189.467 M51.587 197.700 C 51.580 198.909,51.325 200.130,50.987 200.576 C 50.664 201.004,50.415 201.634,50.432 201.976 C 50.450 202.319,50.686 202.101,50.956 201.491 C 51.227 200.880,51.544 200.477,51.661 200.594 C 51.778 200.711,51.912 199.635,51.958 198.204 C 52.004 196.772,51.943 195.600,51.821 195.600 C 51.700 195.600,51.594 196.545,51.587 197.700 M293.262 197.321 C 292.979 198.025,292.567 198.933,292.346 199.339 C 292.125 199.745,292.040 200.174,292.157 200.291 C 292.274 200.408,292.579 199.985,292.835 199.352 C 293.090 198.718,293.487 197.795,293.717 197.301 C 293.947 196.806,294.054 196.321,293.955 196.222 C 293.857 196.124,293.545 196.618,293.262 197.321 M144.267 197.867 C 144.120 198.013,144.000 199.059,144.000 200.190 C 144.000 201.380,143.752 202.575,143.413 203.024 C 143.090 203.451,142.821 204.070,142.815 204.400 C 142.787 206.062,144.169 202.257,144.377 200.100 C 144.510 198.725,144.599 197.600,144.576 197.600 C 144.552 197.600,144.413 197.720,144.267 197.867 M101.456 199.284 C 101.321 199.788,101.208 200.577,101.205 201.039 C 101.200 201.834,100.134 204.371,99.625 204.800 C 99.495 204.910,99.496 206.440,99.628 208.200 L 99.868 211.400 99.934 208.480 C 99.973 206.736,100.252 205.073,100.626 204.350 C 100.970 203.684,101.416 202.129,101.617 200.894 C 101.991 198.596,101.896 197.643,101.456 199.284 M241.467 199.867 C 241.320 200.013,241.200 200.562,241.200 201.087 C 241.200 201.611,240.924 202.573,240.587 203.225 C 239.861 204.630,239.152 208.077,239.653 207.767 C 239.844 207.649,240.000 207.104,240.000 206.557 C 240.000 206.009,240.302 204.984,240.671 204.280 C 241.040 203.576,241.462 202.235,241.608 201.300 C 241.889 199.499,241.884 199.449,241.467 199.867 M291.228 203.298 C 290.953 204.234,290.384 205.770,289.964 206.711 C 289.544 207.652,289.221 209.002,289.246 209.711 L 289.292 211.000 289.582 209.508 C 289.741 208.687,290.147 207.337,290.483 206.508 C 291.426 204.185,292.092 201.959,291.901 201.768 C 291.807 201.673,291.504 202.362,291.228 203.298 M193.795 203.300 C 193.373 204.769,192.310 206.981,191.898 207.250 C 191.660 207.405,191.673 207.598,191.934 207.759 C 192.357 208.021,193.618 205.584,194.140 203.500 C 194.469 202.185,194.166 202.010,193.795 203.300 M49.657 205.057 C 49.374 206.277,49.216 207.349,49.306 207.440 C 49.397 207.530,49.709 206.612,50.000 205.400 C 50.291 204.188,50.449 203.115,50.351 203.017 C 50.253 202.920,49.941 203.837,49.657 205.057 M238.787 210.500 C 238.780 211.709,238.525 212.930,238.187 213.376 C 237.864 213.804,237.615 214.434,237.632 214.776 C 237.650 215.119,237.886 214.901,238.156 214.291 C 238.427 213.680,238.744 213.277,238.861 213.394 C 238.978 213.511,239.112 212.435,239.158 211.004 C 239.204 209.572,239.143 208.400,239.021 208.400 C 238.900 208.400,238.794 209.345,238.787 210.500 M141.293 211.600 C 141.293 212.370,141.375 212.685,141.476 212.300 C 141.576 211.915,141.576 211.285,141.476 210.900 C 141.375 210.515,141.293 210.830,141.293 211.600 M47.832 215.032 C 47.245 216.498,46.858 217.791,46.973 217.906 C 47.087 218.021,47.293 217.774,47.429 217.357 C 47.565 216.941,48.032 215.728,48.466 214.661 C 48.900 213.595,49.175 212.642,49.077 212.544 C 48.979 212.446,48.419 213.565,47.832 215.032 M288.460 213.639 C 288.404 214.603,287.360 217.143,286.831 217.600 C 286.704 217.710,286.707 218.700,286.837 219.800 C 287.074 221.795,287.074 221.796,287.137 220.151 C 287.172 219.244,287.571 217.662,288.025 216.636 C 288.479 215.610,288.776 214.282,288.685 213.685 L 288.520 212.600 288.460 213.639 M141.775 215.000 C 141.873 215.660,142.072 218.180,142.217 220.600 C 142.545 226.091,143.273 229.076,145.096 232.400 C 145.880 233.830,146.899 235.702,147.361 236.561 C 149.374 240.303,153.372 242.886,156.946 242.753 C 157.839 242.720,157.592 242.605,156.087 242.355 C 153.326 241.895,151.083 240.722,149.868 239.104 C 148.619 237.439,146.681 233.585,146.956 233.311 C 147.071 233.196,146.726 232.525,146.189 231.821 C 144.721 229.896,143.359 225.145,142.807 220.018 C 142.536 217.499,142.152 215.069,141.955 214.618 C 141.665 213.958,141.631 214.032,141.775 215.000 M97.636 216.926 C 97.176 217.876,96.800 219.001,96.799 219.426 C 96.798 220.566,94.949 225.411,94.546 225.333 C 94.356 225.296,94.287 226.286,94.394 227.533 L 94.587 229.800 94.719 227.810 C 94.792 226.716,95.000 225.636,95.182 225.410 C 95.607 224.883,96.814 221.412,97.203 219.600 C 97.368 218.830,97.798 217.525,98.157 216.700 C 99.057 214.635,98.662 214.806,97.636 216.926 M237.142 216.600 C 237.016 217.260,236.786 218.160,236.631 218.600 C 236.476 219.040,236.642 218.895,236.999 218.277 C 237.357 217.659,237.587 216.759,237.510 216.277 C 237.393 215.547,237.332 215.601,237.142 216.600 M190.854 216.640 C 190.775 217.859,189.967 220.026,189.661 219.838 C 189.517 219.750,189.353 220.425,189.297 221.339 C 189.190 223.056,189.091 223.373,187.728 226.400 C 186.894 228.250,185.948 231.682,186.202 231.935 C 186.280 232.014,186.562 231.295,186.828 230.339 C 187.094 229.383,187.646 227.868,188.056 226.974 C 188.465 226.079,188.800 225.055,188.800 224.697 C 188.800 224.340,188.980 223.936,189.200 223.800 C 189.420 223.664,189.600 223.046,189.600 222.427 C 189.600 221.808,189.972 220.462,190.426 219.435 C 190.880 218.408,191.174 217.170,191.080 216.684 C 190.916 215.836,190.907 215.834,190.854 216.640 M46.400 219.414 C 46.400 219.972,46.131 220.839,45.801 221.342 C 45.119 222.384,44.324 226.094,44.853 225.767 C 45.044 225.649,45.200 225.108,45.200 224.564 C 45.200 223.287,46.285 220.682,46.708 220.943 C 46.887 221.054,46.961 220.527,46.873 219.772 C 46.685 218.167,46.400 217.951,46.400 219.414 M236.006 222.451 C 236.003 222.589,235.724 223.399,235.387 224.251 C 234.855 225.597,234.853 225.695,235.374 225.000 C 235.703 224.560,236.141 224.002,236.347 223.759 C 236.567 223.500,236.575 223.089,236.366 222.759 C 236.172 222.452,236.009 222.313,236.006 222.451 M144.431 224.837 C 144.338 226.765,148.323 235.207,149.320 235.194 C 149.614 235.190,149.568 235.038,149.200 234.800 C 148.683 234.466,148.693 234.411,149.276 234.406 C 149.648 234.403,150.068 234.213,150.210 233.984 C 150.377 233.714,150.104 233.659,149.434 233.827 C 148.332 234.104,148.143 233.774,148.844 232.800 C 149.212 232.289,149.243 232.300,149.058 232.880 C 148.907 233.353,149.014 233.493,149.413 233.340 C 149.833 233.179,149.881 232.926,149.596 232.392 C 149.322 231.880,149.353 231.599,149.703 231.443 C 149.976 231.321,149.750 231.261,149.200 231.311 C 148.525 231.371,148.218 231.627,148.255 232.096 C 148.334 233.095,147.800 232.630,147.047 231.043 C 146.690 230.289,146.505 229.342,146.636 228.936 C 146.812 228.396,146.774 228.342,146.493 228.734 C 145.988 229.440,145.492 228.254,145.787 227.044 C 145.902 226.572,145.872 226.464,145.719 226.800 C 145.530 227.214,145.294 226.905,144.954 225.800 C 144.683 224.920,144.448 224.487,144.431 224.837 M285.140 226.800 C 284.910 227.460,284.559 228.000,284.361 228.000 C 284.162 228.000,284.024 229.125,284.052 230.500 L 284.105 233.000 284.409 230.800 C 284.576 229.590,285.004 227.925,285.361 227.100 C 285.719 226.275,285.909 225.600,285.785 225.600 C 285.660 225.600,285.370 226.140,285.140 226.800 M44.000 227.985 C 44.000 228.857,43.643 230.477,43.206 231.585 C 42.769 232.693,42.508 233.600,42.627 233.600 C 42.745 233.600,43.030 233.060,43.260 232.400 C 43.490 231.740,43.811 231.200,43.973 231.200 C 44.136 231.200,44.308 230.120,44.355 228.800 C 44.403 227.480,44.342 226.400,44.221 226.400 C 44.099 226.400,44.000 227.113,44.000 227.985 M152.922 228.000 C 153.172 228.660,153.617 229.200,153.911 229.200 C 154.206 229.200,154.355 229.350,154.241 229.533 C 154.128 229.717,154.297 229.867,154.618 229.867 C 155.026 229.867,155.200 229.409,155.200 228.333 C 155.200 226.855,155.151 226.800,153.835 226.800 C 152.484 226.800,152.474 226.813,152.922 228.000 M147.282 229.301 C 146.447 230.308,147.627 231.547,148.800 230.895 L 149.800 230.340 148.608 230.532 C 147.472 230.715,147.453 230.695,148.208 230.121 C 148.971 229.539,148.963 229.527,148.000 229.779 C 147.039 230.031,147.030 230.017,147.776 229.421 C 148.204 229.079,148.361 228.800,148.125 228.800 C 147.890 228.800,147.511 229.026,147.282 229.301 M233.619 231.400 C 233.594 232.500,233.310 233.749,232.987 234.176 C 232.664 234.604,232.411 235.234,232.425 235.576 C 232.441 235.952,232.598 235.832,232.822 235.274 C 233.026 234.765,233.373 234.460,233.592 234.595 C 233.831 234.743,233.885 234.566,233.727 234.155 C 233.563 233.727,233.621 233.566,233.882 233.727 C 234.159 233.898,234.238 233.348,234.117 232.093 C 233.853 229.361,233.670 229.106,233.619 231.400 M93.843 230.633 C 93.709 230.981,93.600 231.577,93.600 231.958 C 93.600 232.338,93.227 233.421,92.772 234.364 C 92.317 235.306,92.042 236.175,92.161 236.294 C 92.280 236.413,92.566 235.991,92.797 235.355 C 93.028 234.720,93.378 233.840,93.576 233.400 C 93.977 232.506,94.462 230.000,94.233 230.000 C 94.152 230.000,93.976 230.285,93.843 230.633 M184.831 234.923 C 183.161 239.039,179.268 241.746,174.059 242.416 L 171.400 242.757 174.056 242.628 C 176.988 242.486,180.123 241.270,182.294 239.433 C 183.497 238.416,186.298 233.365,185.888 232.954 C 185.787 232.854,185.312 233.740,184.831 234.923 M283.467 233.467 C 283.320 233.613,283.200 234.117,283.200 234.587 C 283.200 235.613,282.330 237.593,281.876 237.597 C 281.698 237.599,281.664 237.780,281.800 238.000 C 281.936 238.220,281.902 238.400,281.724 238.400 C 281.546 238.400,281.461 239.281,281.536 240.359 C 281.611 241.437,281.466 242.742,281.214 243.259 C 280.778 244.155,280.786 244.163,281.378 243.424 C 281.727 242.988,282.000 241.881,282.000 240.904 C 282.000 239.945,282.276 238.627,282.613 237.975 C 283.126 236.983,284.078 233.200,283.815 233.200 C 283.770 233.200,283.613 233.320,283.467 233.467 M41.614 235.574 C 41.386 235.999,41.200 236.728,41.200 237.194 C 41.200 237.659,40.924 238.573,40.587 239.225 C 39.861 240.630,39.152 244.077,39.653 243.767 C 39.844 243.649,40.000 243.147,40.000 242.652 C 40.000 242.156,40.360 241.005,40.800 240.094 C 41.240 239.184,41.600 237.968,41.600 237.393 C 41.600 236.818,41.786 235.999,42.014 235.574 C 42.242 235.148,42.338 234.800,42.228 234.800 C 42.118 234.800,41.842 235.148,41.614 235.574 M232.059 237.200 C 232.020 237.750,231.889 238.650,231.767 239.200 C 231.576 240.062,231.608 240.102,231.997 239.491 C 232.246 239.102,232.377 238.202,232.289 237.491 C 232.164 236.487,232.113 236.422,232.059 237.200 M91.399 238.484 C 91.233 238.988,90.890 240.120,90.636 241.000 C 90.383 241.880,89.981 242.563,89.743 242.519 C 89.466 242.466,89.315 243.467,89.321 245.319 C 89.330 247.775,89.354 247.877,89.489 246.012 C 89.577 244.809,89.819 243.618,90.028 243.367 C 90.522 242.771,92.100 237.966,91.874 237.741 C 91.779 237.646,91.566 237.980,91.399 238.484 M231.260 241.667 C 231.227 242.254,230.835 243.584,230.390 244.623 C 229.316 247.128,229.616 247.327,230.766 244.873 C 231.307 243.717,231.598 242.479,231.494 241.774 C 231.324 240.626,231.319 240.624,231.260 241.667 M163.916 242.697 C 165.299 242.775,167.459 242.774,168.716 242.695 C 169.972 242.616,168.840 242.552,166.200 242.553 C 163.560 242.553,162.532 242.618,163.916 242.697 M38.800 246.156 C 38.800 247.122,38.444 248.697,38.009 249.656 C 37.574 250.615,37.234 251.850,37.255 252.400 C 37.285 253.203,37.328 253.242,37.472 252.600 C 37.940 250.519,38.498 249.213,38.832 249.420 C 39.042 249.549,39.200 248.518,39.200 247.024 C 39.200 245.581,39.110 244.400,39.000 244.400 C 38.890 244.400,38.800 245.190,38.800 246.156 M279.636 247.726 C 279.176 248.676,278.798 249.801,278.795 250.226 C 278.788 251.488,276.993 256.206,276.552 256.124 C 276.312 256.080,276.230 256.571,276.351 257.324 C 276.547 258.547,276.566 258.558,276.798 257.600 C 276.932 257.050,277.347 255.931,277.720 255.113 C 278.094 254.295,278.400 253.361,278.400 253.036 C 278.400 252.712,278.561 252.348,278.758 252.226 C 278.955 252.105,279.196 251.329,279.295 250.503 C 279.393 249.676,279.775 248.325,280.142 247.500 C 281.066 245.427,280.661 245.608,279.636 247.726 M88.649 249.015 C 88.512 249.373,88.418 250.056,88.441 250.533 C 88.467 251.081,88.603 250.886,88.810 250.003 C 89.160 248.516,89.065 247.933,88.649 249.015 M228.446 250.215 C 228.421 250.664,228.040 251.737,227.600 252.600 C 227.160 253.463,226.800 254.480,226.800 254.861 C 226.800 255.241,226.620 255.664,226.400 255.800 C 226.180 255.936,226.000 256.557,226.000 257.180 C 226.000 257.803,225.644 259.097,225.209 260.056 C 224.774 261.015,224.434 262.250,224.455 262.800 C 224.485 263.603,224.528 263.642,224.672 263.000 C 225.094 261.121,225.684 259.604,225.932 259.758 C 226.080 259.848,226.247 259.175,226.303 258.261 C 226.360 257.348,226.562 256.240,226.751 255.800 C 226.940 255.360,227.497 254.082,227.988 252.959 C 228.480 251.837,228.794 250.577,228.687 250.159 C 228.508 249.457,228.489 249.462,228.446 250.215 M87.781 252.296 C 87.632 252.788,87.368 253.104,87.196 252.998 C 86.690 252.685,86.571 253.654,86.828 256.000 L 87.070 258.200 87.135 256.286 C 87.171 255.233,87.487 253.934,87.838 253.399 C 88.188 252.864,88.380 252.195,88.265 251.913 C 88.132 251.590,87.953 251.731,87.781 252.296 M35.179 260.556 C 34.716 261.540,34.417 262.763,34.514 263.273 C 34.679 264.135,34.695 264.126,34.746 263.146 C 34.807 261.952,35.713 260.025,36.416 259.590 C 36.746 259.386,36.757 259.220,36.453 259.033 C 36.199 258.876,35.673 259.505,35.179 260.556 M275.632 260.319 C 275.614 260.605,275.241 261.581,274.803 262.489 C 274.364 263.396,274.090 264.223,274.193 264.326 C 274.481 264.615,276.049 260.733,275.844 260.238 C 275.735 259.973,275.651 260.005,275.632 260.319 M84.866 263.300 C 84.424 264.235,84.003 265.936,83.931 267.081 C 83.765 269.716,84.269 269.286,84.494 266.600 C 84.586 265.500,84.965 263.925,85.336 263.100 C 86.267 261.029,85.859 261.203,84.866 263.300 M33.646 266.839 C 33.621 267.850,33.342 269.200,33.027 269.839 C 32.712 270.477,32.351 271.540,32.225 272.200 C 32.068 273.020,32.197 272.861,32.632 271.698 C 32.982 270.761,33.431 270.095,33.630 270.218 C 33.828 270.341,33.872 270.133,33.727 269.755 C 33.579 269.367,33.627 269.170,33.839 269.301 C 34.057 269.435,34.161 268.834,34.086 267.866 C 33.886 265.265,33.697 264.824,33.646 266.839 M83.260 270.481 C 83.183 271.875,82.381 273.636,81.946 273.367 C 81.761 273.252,81.728 273.467,81.873 273.845 C 82.021 274.233,81.973 274.430,81.761 274.299 C 81.543 274.165,81.446 274.707,81.530 275.587 C 81.610 276.423,81.478 277.228,81.238 277.377 C 80.997 277.526,80.800 277.851,80.800 278.100 C 80.800 278.349,81.064 278.204,81.387 277.776 C 81.710 277.349,81.980 276.539,81.987 275.975 C 81.994 275.411,82.371 274.183,82.824 273.245 C 83.277 272.308,83.574 271.059,83.484 270.470 L 83.320 269.400 83.260 270.481 M273.233 271.837 C 272.405 275.563,271.964 276.825,271.572 276.583 C 271.372 276.459,271.331 276.676,271.481 277.067 C 271.798 277.894,273.171 275.236,273.190 273.760 C 273.195 273.298,273.396 272.356,273.636 271.668 C 273.876 270.980,274.002 270.205,273.915 269.945 C 273.829 269.686,273.522 270.537,273.233 271.837 M222.853 272.476 C 222.153 274.345,222.010 275.396,222.645 274.000 C 222.995 273.230,223.463 272.488,223.684 272.350 C 223.945 272.187,223.930 272.004,223.642 271.826 C 223.388 271.669,223.051 271.947,222.853 272.476 M31.467 273.867 C 31.320 274.013,31.200 274.699,31.200 275.390 C 31.200 276.081,30.936 276.996,30.613 277.424 C 30.290 277.851,30.027 278.470,30.029 278.800 C 30.035 279.912,31.343 277.016,31.609 275.300 C 31.889 273.499,31.884 273.449,31.467 273.867 M271.131 279.800 C 270.674 283.395,269.574 286.800,268.871 286.800 C 268.710 286.800,268.646 287.499,268.727 288.353 C 268.808 289.208,268.678 290.028,268.438 290.177 C 268.197 290.326,268.000 290.651,268.000 290.900 C 268.000 291.149,268.264 291.004,268.587 290.576 C 268.910 290.149,269.180 289.339,269.187 288.775 C 269.194 288.211,269.560 287.005,270.000 286.094 C 270.440 285.184,270.800 284.058,270.800 283.593 C 270.800 283.128,270.990 282.392,271.222 281.958 C 271.454 281.524,271.586 280.411,271.515 279.485 L 271.385 277.800 271.131 279.800 M79.500 281.175 C 79.115 281.993,78.823 283.278,78.850 284.031 C 78.899 285.361,78.908 285.353,79.172 283.735 C 79.322 282.819,79.674 281.792,79.955 281.454 C 80.236 281.115,80.406 280.579,80.333 280.263 C 80.259 279.941,79.891 280.344,79.500 281.175 M220.860 281.076 C 220.827 281.778,220.635 282.455,220.434 282.579 C 219.998 282.848,218.400 287.653,218.400 288.695 C 218.400 289.095,218.160 289.777,217.866 290.211 C 217.114 291.324,216.724 292.494,217.205 292.197 C 217.422 292.063,217.600 291.715,217.600 291.425 C 217.600 291.135,217.870 290.674,218.200 290.400 C 218.530 290.126,218.800 289.305,218.800 288.575 C 218.800 287.845,218.980 287.136,219.200 287.000 C 219.420 286.864,219.600 286.356,219.600 285.870 C 219.600 285.385,219.970 284.297,220.423 283.453 C 220.883 282.595,221.174 281.452,221.083 280.859 C 220.936 279.905,220.914 279.927,220.860 281.076 M28.885 281.613 C 28.618 282.040,28.400 282.814,28.400 283.333 C 28.400 283.852,28.099 284.880,27.732 285.616 C 26.749 287.588,26.316 289.770,26.117 293.760 C 26.012 295.881,25.710 297.670,25.372 298.187 C 24.752 299.132,23.924 302.894,24.399 302.600 C 24.560 302.501,24.794 301.656,24.919 300.724 C 25.045 299.791,25.403 298.841,25.716 298.612 C 26.128 298.311,26.309 297.149,26.369 294.423 C 26.414 292.349,26.620 290.337,26.826 289.952 C 27.032 289.567,27.200 288.908,27.200 288.488 C 27.200 287.592,28.327 285.200,28.749 285.200 C 28.909 285.200,28.966 284.568,28.875 283.794 C 28.784 283.015,28.934 282.120,29.213 281.785 C 29.488 281.453,29.637 281.103,29.542 281.009 C 29.447 280.914,29.152 281.186,28.885 281.613 M78.249 286.215 C 78.112 286.573,78.015 287.166,78.034 287.533 C 78.053 287.900,78.227 287.669,78.421 287.020 C 78.798 285.758,78.665 285.133,78.249 286.215 M77.405 289.305 C 77.243 289.913,76.906 290.543,76.655 290.705 C 76.353 290.901,76.278 291.808,76.433 293.400 L 76.666 295.800 76.733 293.680 C 76.770 292.514,77.081 291.017,77.424 290.353 C 77.768 289.689,77.970 288.933,77.874 288.673 C 77.777 288.413,77.566 288.697,77.405 289.305 M266.700 293.975 C 266.315 294.793,266.000 295.845,266.000 296.312 C 266.000 296.780,265.837 297.576,265.638 298.081 C 265.440 298.587,264.974 299.856,264.604 300.903 C 264.234 301.949,263.812 302.731,263.666 302.639 C 263.520 302.548,263.482 303.762,263.583 305.337 L 263.766 308.200 264.030 305.400 C 264.176 303.860,264.768 301.340,265.346 299.800 C 265.924 298.260,266.397 296.635,266.398 296.189 C 266.399 295.743,266.683 294.975,267.028 294.482 C 267.373 293.989,267.598 293.338,267.528 293.036 C 267.458 292.734,267.085 293.157,266.700 293.975 M215.867 294.667 C 215.720 294.813,215.600 295.450,215.600 296.081 C 215.600 296.712,215.331 297.639,215.001 298.142 C 214.360 299.120,213.725 301.650,213.229 305.200 C 213.060 306.410,212.615 308.091,212.240 308.936 C 211.866 309.781,211.748 310.356,211.979 310.213 C 212.211 310.070,212.400 309.715,212.400 309.425 C 212.400 309.135,212.670 308.674,213.000 308.400 C 213.389 308.078,213.600 307.189,213.600 305.879 C 213.600 304.767,213.762 303.304,213.961 302.628 C 215.076 298.828,215.475 297.807,215.818 297.867 C 216.028 297.903,216.200 297.138,216.200 296.167 C 216.200 295.195,216.185 294.400,216.167 294.400 C 216.148 294.400,216.013 294.520,215.867 294.667 M75.783 297.900 C 75.510 299.519,74.480 302.069,73.962 302.411 C 73.786 302.526,73.792 302.863,73.974 303.158 C 74.209 303.537,74.453 303.240,74.805 302.148 C 75.080 301.297,75.436 300.420,75.598 300.200 C 75.945 299.725,76.493 296.400,76.223 296.400 C 76.120 296.400,75.922 297.075,75.783 297.900 M23.693 304.400 C 23.693 305.170,23.775 305.485,23.876 305.100 C 23.976 304.715,23.976 304.085,23.876 303.700 C 23.775 303.315,23.693 303.630,23.693 304.400 M22.064 310.360 C 21.369 312.120,20.800 313.983,20.800 314.500 C 20.800 315.017,20.610 315.630,20.378 315.862 C 20.147 316.093,19.696 317.150,19.377 318.210 C 18.645 320.643,19.126 320.233,19.979 317.696 C 20.330 316.653,20.812 315.836,21.049 315.880 C 21.296 315.926,21.406 315.566,21.305 315.038 C 21.056 313.737,22.720 308.996,23.639 308.389 C 23.814 308.274,23.816 307.950,23.643 307.670 C 23.441 307.342,22.878 308.302,22.064 310.360 M73.067 307.867 C 72.920 308.013,72.800 308.526,72.800 309.007 C 72.800 310.201,71.988 312.440,71.635 312.221 C 71.477 312.124,71.305 312.861,71.253 313.860 C 71.202 314.859,71.011 315.974,70.830 316.338 C 69.021 319.972,68.805 320.629,68.863 322.338 L 68.926 324.200 69.177 322.400 C 69.315 321.410,69.737 319.931,70.114 319.113 C 70.491 318.295,70.800 317.361,70.800 317.036 C 70.800 316.712,70.980 316.336,71.200 316.200 C 71.420 316.064,71.600 315.327,71.600 314.562 C 71.600 313.798,71.869 312.761,72.199 312.258 C 72.686 311.515,73.708 307.600,73.415 307.600 C 73.370 307.600,73.213 307.720,73.067 307.867 M263.006 310.500 C 262.861 311.435,262.505 312.740,262.215 313.400 C 261.319 315.442,261.066 316.530,261.557 316.226 C 261.801 316.076,262.001 315.648,262.002 315.276 C 262.004 314.904,262.249 314.131,262.548 313.559 C 263.099 312.504,263.808 308.800,263.460 308.800 C 263.356 308.800,263.151 309.565,263.006 310.500 M210.477 318.138 C 210.435 319.424,210.144 320.954,209.831 321.538 C 209.188 322.738,208.000 326.470,208.000 327.291 C 208.000 327.588,207.640 328.537,207.200 329.400 C 206.760 330.263,206.400 331.280,206.400 331.661 C 206.400 332.041,206.220 332.464,206.000 332.600 C 205.780 332.736,205.600 333.051,205.600 333.300 C 205.600 333.986,206.773 332.292,206.787 331.585 C 206.794 331.246,207.160 330.263,207.600 329.400 C 208.040 328.537,208.403 327.554,208.406 327.215 C 208.413 326.437,209.441 323.467,210.233 321.936 C 210.641 321.148,210.791 319.959,210.696 318.284 L 210.554 315.800 210.477 318.138 M18.347 321.600 C 18.221 322.370,17.819 323.675,17.454 324.500 C 16.523 326.601,16.946 326.378,17.992 324.216 C 18.467 323.234,18.793 321.929,18.716 321.316 C 18.583 320.259,18.564 320.274,18.347 321.600 M260.184 321.453 C 259.669 323.763,259.128 325.203,258.841 325.026 C 258.680 324.926,258.504 325.683,258.451 326.709 C 258.398 327.734,258.209 328.759,258.032 328.987 C 257.855 329.214,257.591 329.900,257.445 330.510 C 257.299 331.121,256.869 331.931,256.490 332.310 C 255.945 332.855,255.850 333.419,256.037 335.000 C 256.268 336.949,256.276 336.959,256.337 335.385 C 256.372 334.496,256.760 333.063,257.200 332.200 C 257.640 331.337,258.000 330.320,258.000 329.939 C 258.000 329.559,258.180 329.136,258.400 329.000 C 258.620 328.864,258.800 328.127,258.800 327.362 C 258.800 326.598,259.060 325.573,259.378 325.086 C 259.973 324.172,260.878 320.744,260.597 320.464 C 260.510 320.377,260.324 320.822,260.184 321.453 M16.014 328.774 C 15.786 329.199,15.600 330.256,15.600 331.123 C 15.600 331.989,15.262 333.486,14.849 334.449 C 14.022 336.375,13.354 339.821,14.005 338.800 C 14.216 338.470,14.391 337.822,14.394 337.360 C 14.403 336.067,15.234 333.974,15.639 334.224 C 16.050 334.478,16.096 334.142,16.007 331.526 C 15.972 330.496,16.143 329.281,16.386 328.826 C 16.629 328.372,16.738 328.000,16.628 328.000 C 16.518 328.000,16.242 328.348,16.014 328.774 M66.836 329.726 C 66.376 330.676,66.018 331.891,66.041 332.426 C 66.078 333.298,66.114 333.274,66.393 332.200 C 66.565 331.540,66.999 330.325,67.358 329.500 C 68.257 327.435,67.862 327.606,66.836 329.726 M204.811 336.571 C 204.181 338.229,204.354 338.779,205.022 337.239 C 205.347 336.491,205.525 335.791,205.417 335.684 C 205.310 335.577,205.037 335.976,204.811 336.571 M64.636 336.998 C 64.493 337.567,64.222 337.937,64.034 337.821 C 63.497 337.489,63.381 338.734,63.627 342.200 L 63.853 345.400 63.927 342.714 C 63.967 341.237,64.283 339.195,64.629 338.176 C 64.975 337.158,65.176 336.243,65.077 336.143 C 64.977 336.044,64.779 336.428,64.636 336.998 M203.568 340.100 C 203.449 340.960,203.510 341.450,203.712 341.248 C 203.905 341.055,203.998 340.381,203.919 339.749 C 203.787 338.691,203.759 338.719,203.568 340.100 M13.180 342.800 C 13.059 344.730,12.669 346.848,12.278 347.700 C 11.312 349.805,11.745 349.579,12.782 347.438 C 13.476 346.004,13.612 345.090,13.514 342.538 L 13.393 339.400 13.180 342.800 M254.036 342.526 C 253.576 343.476,253.218 344.691,253.241 345.226 C 253.275 346.030,253.336 345.973,253.590 344.902 C 253.759 344.189,254.075 343.379,254.291 343.102 C 254.685 342.600,255.237 340.800,254.998 340.800 C 254.928 340.800,254.495 341.577,254.036 342.526 M202.865 343.649 C 202.829 344.666,202.462 346.286,202.049 347.249 C 201.222 349.175,200.554 352.621,201.205 351.600 C 201.416 351.270,201.591 350.622,201.594 350.160 C 201.603 348.931,202.426 346.769,202.797 346.998 C 203.310 347.315,203.430 346.355,203.172 344.000 L 202.930 341.800 202.865 343.649 M62.854 347.225 C 62.825 347.789,62.427 349.021,61.972 349.964 C 61.517 350.906,61.215 351.748,61.302 351.835 C 61.652 352.185,63.246 347.954,63.083 347.108 C 62.921 346.264,62.905 346.272,62.854 347.225 M252.667 346.667 C 252.520 346.813,252.411 347.308,252.425 347.767 C 252.449 348.533,252.482 348.523,252.834 347.642 C 253.226 346.663,253.144 346.189,252.667 346.667 M252.000 349.118 C 252.000 349.366,251.671 349.891,251.268 350.284 C 250.620 350.918,250.568 351.411,250.820 354.600 L 251.104 358.200 251.052 354.537 C 251.023 352.522,251.135 350.958,251.301 351.061 C 251.652 351.280,252.524 349.190,252.211 348.878 C 252.095 348.762,252.000 348.870,252.000 349.118 M10.446 352.839 C 10.421 353.190,10.099 354.080,9.732 354.816 C 8.538 357.210,8.270 359.284,8.207 366.600 L 8.146 373.800 8.411 366.600 C 8.697 358.831,8.840 357.863,10.069 355.347 C 10.514 354.439,10.791 353.359,10.685 352.947 C 10.542 352.391,10.481 352.363,10.446 352.839 M200.480 355.424 C 200.428 357.530,200.196 358.916,199.813 359.424 C 199.490 359.851,199.220 360.560,199.213 361.000 C 199.205 361.509,199.498 361.199,200.018 360.149 C 200.681 358.809,200.810 357.904,200.698 355.349 L 200.561 352.200 200.480 355.424 M59.661 356.754 C 59.386 357.672,59.022 358.337,58.851 358.232 C 58.681 358.126,58.506 358.976,58.464 360.120 C 58.362 362.841,57.693 365.824,56.754 367.738 C 56.339 368.584,56.014 369.664,56.032 370.138 C 56.052 370.700,56.134 370.791,56.267 370.400 C 56.380 370.070,56.757 369.170,57.105 368.400 C 57.824 366.812,58.281 364.874,58.756 361.400 C 58.936 360.080,59.389 358.308,59.763 357.463 C 60.136 356.617,60.379 355.736,60.302 355.505 C 60.224 355.273,59.936 355.835,59.661 356.754 M250.054 360.025 C 250.025 360.589,249.627 361.821,249.172 362.764 C 248.717 363.706,248.415 364.548,248.502 364.635 C 248.852 364.985,250.446 360.754,250.283 359.908 C 250.121 359.064,250.105 359.072,250.054 360.025 M197.693 368.000 C 197.693 368.770,197.775 369.085,197.876 368.700 C 197.976 368.315,197.976 367.685,197.876 367.300 C 197.775 366.915,197.693 367.230,197.693 368.000 M247.467 367.867 C 247.320 368.013,247.200 368.382,247.200 368.686 C 247.200 368.990,246.840 369.984,246.400 370.894 C 245.960 371.805,245.600 372.969,245.600 373.481 C 245.600 373.992,245.441 374.723,245.247 375.105 C 245.052 375.487,244.667 376.340,244.391 377.000 C 243.144 379.976,242.431 381.027,239.923 383.590 C 235.910 387.691,234.847 388.003,223.400 388.450 C 213.430 388.839,210.908 389.092,216.600 389.133 C 226.109 389.202,232.895 388.582,235.518 387.404 C 239.490 385.622,245.200 378.864,245.200 375.945 C 245.200 375.561,245.380 375.136,245.600 375.000 C 245.820 374.864,246.000 374.304,246.000 373.757 C 246.000 373.209,246.250 372.274,246.556 371.680 C 247.090 370.643,248.043 367.600,247.834 367.600 C 247.779 367.600,247.613 367.720,247.467 367.867 M53.992 375.817 C 53.508 376.816,52.303 378.301,51.313 379.117 C 50.323 379.932,48.424 381.646,47.094 382.924 C 43.285 386.583,42.926 386.708,32.000 388.187 C 29.470 388.530,26.590 388.877,25.600 388.958 C 24.610 389.039,26.230 389.041,29.200 388.964 C 41.074 388.652,43.531 387.812,49.328 382.083 C 53.079 378.376,53.941 377.260,54.799 375.003 C 55.418 373.375,54.941 373.856,53.992 375.817 M199.216 374.908 C 199.198 375.718,200.765 378.341,201.760 379.167 C 202.128 379.472,203.081 380.910,203.878 382.361 C 206.160 386.518,209.134 388.860,212.000 388.756 C 212.746 388.729,212.616 388.629,211.487 388.363 C 208.228 387.596,206.522 386.114,204.391 382.200 C 203.673 380.880,202.464 379.106,201.705 378.258 C 200.947 377.410,200.080 376.150,199.779 375.458 C 199.448 374.698,199.225 374.480,199.216 374.908 M8.851 375.600 C 8.727 379.698,19.197 389.589,22.695 388.677 C 23.217 388.540,23.160 388.481,22.474 388.446 C 20.337 388.339,17.648 386.717,15.538 384.263 C 14.374 382.908,13.189 381.655,12.905 381.477 C 11.362 380.512,9.709 377.997,9.174 375.800 C 8.908 374.709,8.879 374.691,8.851 375.600 M46.966 381.117 C 43.305 384.583,40.920 385.816,38.000 385.752 C 36.429 385.717,36.029 385.804,36.600 386.054 C 37.124 386.284,36.572 386.342,35.000 386.222 C 33.459 386.104,32.958 386.154,33.600 386.362 L 34.600 386.686 33.400 386.889 C 32.740 387.001,33.354 387.009,34.765 386.907 C 40.514 386.493,43.619 385.041,47.787 380.818 C 50.963 377.602,50.501 377.769,46.966 381.117 M45.775 381.300 L 44.600 382.600 45.900 381.425 C 47.112 380.330,47.384 380.000,47.075 380.000 C 47.006 380.000,46.421 380.585,45.775 381.300 " stroke="none" fill="#3c5654" fill-rule="evenodd"></path><path id="path1" d="M109.893 11.615 C 105.846 12.296,102.955 14.633,101.253 18.600 C 100.970 19.260,100.302 20.655,99.769 21.700 C 99.236 22.745,98.800 23.950,98.800 24.377 C 98.800 24.804,98.644 25.249,98.454 25.367 C 98.264 25.484,98.014 26.279,97.900 27.134 C 97.785 27.988,97.428 29.297,97.105 30.043 C 96.111 32.344,95.600 35.084,95.600 38.117 C 95.600 39.863,95.389 41.337,95.070 41.811 C 94.501 42.659,92.800 47.546,92.800 48.333 C 92.800 48.753,91.938 50.872,90.710 53.467 C 90.484 53.945,90.379 54.879,90.477 55.543 C 90.575 56.211,90.479 56.718,90.262 56.676 C 89.693 56.566,88.061 62.129,87.923 64.649 C 87.858 65.832,87.693 66.800,87.557 66.800 C 87.305 66.800,86.510 68.855,85.607 71.842 C 85.334 72.745,85.177 74.320,85.258 75.342 C 85.339 76.364,85.259 77.200,85.079 77.200 C 84.900 77.200,84.864 77.380,85.000 77.600 C 85.136 77.820,85.101 78.000,84.921 78.000 C 84.221 78.000,82.800 82.568,82.800 84.821 C 82.800 86.325,81.899 89.391,80.804 91.613 C 80.638 91.950,80.378 92.850,80.227 93.613 C 80.075 94.376,79.622 95.720,79.218 96.600 C 78.209 98.804,77.466 102.400,77.666 104.116 C 77.758 104.901,77.716 105.471,77.572 105.383 C 77.342 105.241,76.721 106.515,75.556 109.519 C 75.360 110.024,75.200 110.852,75.200 111.359 C 75.200 111.866,74.776 113.078,74.258 114.052 C 72.972 116.472,72.685 117.960,72.639 122.462 C 72.618 124.587,72.442 126.226,72.248 126.107 C 72.055 125.987,71.979 126.137,72.080 126.441 C 72.181 126.744,72.025 127.232,71.733 127.524 C 71.440 127.817,71.108 128.538,70.994 129.128 C 70.880 129.718,70.610 130.968,70.394 131.906 C 70.177 132.844,70.000 134.010,70.000 134.498 C 70.000 135.305,69.153 137.764,67.740 141.060 C 67.443 141.754,67.200 142.604,67.200 142.950 C 67.200 143.297,66.668 144.741,66.018 146.161 C 65.368 147.580,64.783 149.547,64.718 150.532 C 64.653 151.517,64.491 152.256,64.358 152.174 C 64.024 151.968,63.200 153.863,63.200 154.839 C 63.200 155.279,62.914 156.193,62.565 156.868 C 62.161 157.649,61.979 158.808,62.065 160.049 C 62.139 161.122,62.068 162.000,61.908 162.000 C 61.747 162.000,61.502 162.450,61.364 163.000 C 61.226 163.550,60.953 164.000,60.757 164.000 C 60.560 164.000,60.400 164.709,60.400 165.576 C 60.400 166.443,60.220 167.264,60.000 167.400 C 59.780 167.536,59.600 169.246,59.600 171.200 C 59.600 173.154,59.435 174.855,59.234 174.979 C 58.827 175.231,57.200 180.023,57.200 180.971 C 57.200 181.304,56.795 182.346,56.300 183.288 C 55.131 185.514,54.414 187.570,54.406 188.719 C 54.403 189.225,54.040 190.384,53.600 191.294 C 53.160 192.205,52.800 193.356,52.800 193.852 C 52.800 194.347,52.620 194.864,52.400 195.000 C 52.180 195.136,52.000 196.193,52.000 197.348 C 52.000 198.631,51.688 200.095,51.200 201.106 C 50.760 202.016,50.398 203.085,50.396 203.481 C 50.393 203.876,50.123 205.084,49.796 206.164 C 49.468 207.244,49.200 209.190,49.200 210.489 C 49.200 212.631,48.632 214.636,47.109 217.867 C 46.884 218.345,46.780 219.280,46.877 219.946 C 46.975 220.613,46.904 221.064,46.719 220.950 C 46.297 220.689,45.200 223.258,45.200 224.507 C 45.200 225.020,45.030 225.611,44.823 225.820 C 44.616 226.029,44.406 227.325,44.357 228.700 C 44.309 230.075,44.136 231.200,43.973 231.200 C 43.811 231.200,43.454 231.785,43.179 232.500 C 42.905 233.215,42.440 234.430,42.146 235.200 C 41.852 235.970,41.609 237.014,41.606 237.519 C 41.603 238.025,41.240 239.184,40.800 240.094 C 40.360 241.005,40.000 242.156,40.000 242.652 C 40.000 243.147,39.820 243.664,39.600 243.800 C 39.380 243.936,39.200 245.307,39.200 246.847 C 39.200 248.516,39.046 249.552,38.820 249.412 C 38.610 249.283,38.228 249.947,37.969 250.888 C 37.711 251.830,37.233 253.351,36.907 254.270 C 36.581 255.188,36.380 256.763,36.460 257.770 C 36.540 258.776,36.478 259.600,36.322 259.600 C 35.454 259.600,34.297 263.749,34.242 267.062 C 34.218 268.448,34.039 269.424,33.832 269.296 C 33.628 269.170,33.582 269.375,33.727 269.755 C 33.872 270.133,33.836 270.346,33.646 270.229 C 33.233 269.973,31.602 274.278,31.595 275.641 C 31.593 276.168,31.143 277.383,30.595 278.341 C 30.048 279.298,29.600 280.413,29.600 280.817 C 29.600 281.222,29.403 281.674,29.162 281.823 C 28.922 281.972,28.792 282.792,28.873 283.647 C 28.954 284.501,28.895 285.200,28.740 285.200 C 28.325 285.200,27.200 287.602,27.200 288.488 C 27.200 288.908,27.030 289.571,26.821 289.960 C 26.613 290.350,26.410 292.397,26.371 294.511 C 26.319 297.269,26.150 298.410,25.772 298.556 C 25.482 298.667,25.131 299.442,24.993 300.279 C 24.855 301.116,24.569 302.160,24.358 302.600 C 24.146 303.040,23.934 304.523,23.887 305.896 C 23.839 307.269,23.694 308.394,23.564 308.396 C 22.914 308.406,21.073 313.821,21.305 315.038 C 21.406 315.566,21.296 315.926,21.049 315.880 C 20.812 315.836,20.330 316.653,19.979 317.696 C 19.628 318.739,19.220 319.714,19.071 319.863 C 18.922 320.012,18.800 320.707,18.800 321.407 C 18.800 322.108,18.376 323.478,17.858 324.452 C 16.744 326.547,16.356 328.150,16.176 331.400 C 16.103 332.720,16.033 333.946,16.022 334.124 C 16.010 334.302,15.829 334.341,15.620 334.212 C 15.410 334.083,15.039 334.747,14.794 335.688 C 14.549 336.630,14.180 337.953,13.974 338.628 C 13.768 339.304,13.600 341.191,13.600 342.823 C 13.600 345.109,13.383 346.248,12.654 347.794 C 11.557 350.123,10.800 352.375,10.800 353.316 C 10.800 353.679,10.467 354.569,10.059 355.295 C 8.617 357.861,7.772 371.020,8.818 374.600 C 9.866 378.184,11.183 380.400,12.906 381.478 C 13.190 381.655,14.374 382.908,15.538 384.263 C 19.177 388.497,23.197 389.475,31.874 388.238 C 43.145 386.632,43.285 386.583,47.094 382.924 C 48.424 381.646,50.313 379.941,51.291 379.135 C 53.403 377.394,56.000 372.307,56.000 369.909 C 56.000 369.561,56.339 368.584,56.754 367.738 C 57.693 365.824,58.362 362.841,58.464 360.120 C 58.506 358.976,58.659 358.113,58.803 358.202 C 59.111 358.392,61.200 353.200,61.200 352.244 C 61.200 351.885,61.543 350.828,61.963 349.896 C 63.263 347.008,63.319 346.595,63.584 338.076 C 63.593 337.788,63.764 337.654,63.965 337.778 C 64.339 338.010,66.000 333.395,66.000 332.122 C 66.000 331.731,66.426 330.509,66.948 329.406 C 68.085 326.998,68.800 324.153,68.800 322.032 C 68.800 320.680,69.132 319.747,70.830 316.338 C 71.011 315.974,71.202 314.859,71.253 313.860 C 71.305 312.861,71.477 312.124,71.635 312.221 C 71.970 312.429,72.800 310.226,72.800 309.126 C 72.800 308.711,73.088 307.933,73.439 307.396 C 73.874 306.733,74.034 305.776,73.939 304.410 C 73.863 303.304,73.900 302.400,74.023 302.400 C 74.912 302.401,76.541 295.724,76.344 292.886 C 76.259 291.665,76.374 290.742,76.622 290.647 C 76.854 290.558,77.278 289.701,77.564 288.743 C 77.849 287.784,78.245 286.587,78.442 286.081 C 78.639 285.576,78.800 284.555,78.800 283.814 C 78.800 282.532,79.858 279.952,80.500 279.667 C 80.665 279.593,80.800 279.109,80.800 278.590 C 80.800 278.072,80.997 277.526,81.238 277.377 C 81.478 277.228,81.610 276.423,81.530 275.587 C 81.446 274.707,81.543 274.165,81.761 274.299 C 81.973 274.430,82.021 274.233,81.873 273.845 C 81.728 273.467,81.768 273.257,81.963 273.377 C 82.579 273.758,83.529 270.574,83.865 267.000 C 83.968 265.900,84.478 264.100,84.997 263.000 C 86.195 260.463,86.484 259.227,86.637 256.000 C 86.704 254.570,86.768 253.235,86.780 253.033 C 86.791 252.832,86.917 252.784,87.061 252.927 C 87.402 253.268,88.400 251.331,88.400 250.328 C 88.400 249.899,88.573 249.224,88.784 248.830 C 88.995 248.435,89.200 246.835,89.240 245.275 C 89.285 243.494,89.472 242.467,89.743 242.519 C 89.981 242.563,90.373 241.880,90.615 241.000 C 90.857 240.120,91.268 238.893,91.527 238.274 C 91.787 237.655,92.000 236.888,92.000 236.570 C 92.000 236.252,92.343 235.228,92.763 234.296 C 93.823 231.941,94.110 230.588,94.158 227.733 C 94.181 226.377,94.356 225.297,94.546 225.333 C 94.963 225.414,96.798 220.548,96.799 219.360 C 96.800 218.897,97.224 217.722,97.742 216.748 C 99.018 214.348,99.313 212.844,99.360 208.500 C 99.382 206.464,99.500 204.799,99.623 204.800 C 100.299 204.801,101.341 201.177,101.866 197.000 C 102.004 195.900,102.338 194.640,102.606 194.200 C 102.875 193.760,103.502 192.050,103.998 190.400 C 105.019 187.006,105.178 186.571,106.396 183.829 C 106.914 182.661,107.209 181.328,107.119 180.557 C 107.035 179.841,107.139 179.288,107.349 179.328 C 107.909 179.434,109.541 173.846,109.677 171.351 C 109.742 170.168,109.914 169.200,110.059 169.200 C 110.877 169.200,112.368 162.844,112.386 159.280 C 112.394 157.526,112.634 155.908,112.985 155.228 C 113.797 153.658,114.787 150.741,114.794 149.899 C 114.797 149.513,115.160 148.525,115.600 147.704 C 116.040 146.884,116.406 145.939,116.413 145.606 C 116.420 145.273,116.690 144.651,117.013 144.224 C 117.336 143.796,117.600 142.933,117.600 142.304 C 117.600 141.676,117.960 140.416,118.400 139.506 C 118.840 138.595,119.200 137.470,119.200 137.005 C 119.200 136.540,119.372 135.988,119.583 135.777 C 119.793 135.567,120.010 134.193,120.064 132.724 C 120.118 131.255,120.297 130.136,120.462 130.238 C 120.626 130.340,120.961 129.653,121.206 128.712 C 121.451 127.770,121.820 126.447,122.026 125.772 C 122.232 125.096,122.400 123.195,122.400 121.547 C 122.400 119.390,122.620 118.096,123.184 116.928 C 124.189 114.848,125.187 111.983,125.194 111.155 C 125.197 110.801,125.731 109.339,126.380 107.907 C 127.030 106.475,127.615 104.488,127.680 103.490 C 127.746 102.493,127.909 101.744,128.042 101.826 C 128.376 102.032,129.200 100.137,129.200 99.161 C 129.200 98.721,129.486 97.807,129.835 97.132 C 130.239 96.351,130.421 95.192,130.335 93.951 C 130.261 92.878,130.332 92.000,130.492 92.000 C 130.653 92.000,130.898 91.550,131.036 91.000 C 131.174 90.450,131.447 90.000,131.643 90.000 C 131.840 90.000,132.000 89.381,132.000 88.624 C 132.000 87.867,132.191 87.129,132.424 86.985 C 132.672 86.832,132.801 85.666,132.734 84.185 C 132.672 82.788,132.780 81.501,132.974 81.323 C 133.174 81.140,133.215 81.313,133.068 81.721 C 132.926 82.117,132.955 82.351,133.134 82.241 C 133.313 82.130,133.683 81.266,133.957 80.320 C 134.231 79.374,134.731 77.745,135.068 76.700 C 135.405 75.655,135.616 73.990,135.537 73.000 C 135.459 72.010,135.503 71.200,135.636 71.200 C 136.128 71.200,137.139 68.112,137.600 65.200 C 137.861 63.550,138.324 61.570,138.628 60.800 C 139.596 58.351,140.388 55.821,140.394 55.160 C 140.397 54.807,140.809 53.727,141.308 52.760 C 142.471 50.506,143.200 48.383,143.200 47.252 C 143.200 46.762,143.560 45.616,144.000 44.706 C 144.440 43.795,144.800 42.644,144.800 42.148 C 144.800 41.653,144.980 41.136,145.200 41.000 C 145.443 40.850,145.600 37.870,145.600 33.400 C 145.600 28.930,145.443 25.950,145.200 25.800 C 144.980 25.664,144.800 25.119,144.800 24.589 C 144.800 23.497,143.542 21.055,142.271 19.678 C 140.775 18.059,129.603 13.138,127.630 13.229 C 127.283 13.245,127.900 13.580,129.000 13.972 C 131.176 14.749,136.800 17.500,136.800 17.788 C 136.800 17.886,135.604 17.430,134.142 16.774 C 132.681 16.118,131.391 15.676,131.276 15.791 C 131.161 15.906,131.313 16.000,131.613 16.000 C 132.032 16.000,132.050 16.110,131.689 16.471 C 131.329 16.831,131.007 16.762,130.309 16.173 L 129.400 15.406 130.304 16.433 C 131.173 17.420,131.146 18.007,130.233 17.994 C 129.995 17.991,130.070 17.813,130.400 17.600 C 130.866 17.299,130.749 17.211,129.876 17.206 C 129.087 17.202,128.840 17.349,129.045 17.700 C 129.206 17.975,128.979 17.886,128.541 17.503 C 127.759 16.819,126.000 18.071,126.000 19.310 C 126.000 19.496,125.855 19.558,125.678 19.448 C 125.501 19.339,125.022 19.868,124.615 20.624 C 124.149 21.489,123.563 22.011,123.037 22.031 C 122.577 22.047,121.840 22.140,121.400 22.235 C 118.095 22.955,116.782 21.858,116.619 18.242 C 116.578 17.315,116.410 16.340,116.247 16.075 C 116.074 15.796,116.211 15.494,116.574 15.354 C 117.354 15.055,115.715 13.619,114.537 13.568 C 114.061 13.548,114.221 13.384,114.990 13.105 C 116.065 12.715,116.104 12.644,115.390 12.365 C 114.840 12.150,115.184 12.048,116.524 12.028 C 117.698 12.011,118.351 11.844,118.200 11.600 C 117.913 11.136,112.682 11.146,109.893 11.615 M311.000 11.976 C 308.364 12.242,308.493 12.266,313.200 12.389 C 316.921 12.487,317.740 12.592,316.400 12.800 L 314.600 13.080 316.200 13.181 L 317.800 13.282 316.480 13.595 C 314.722 14.011,314.508 14.295,315.429 14.991 C 316.129 15.521,316.136 15.576,315.500 15.587 C 315.115 15.594,314.800 15.767,314.800 15.971 C 314.800 16.175,314.485 16.424,314.100 16.524 C 313.468 16.689,313.473 16.712,314.143 16.754 C 314.615 16.783,314.805 17.009,314.665 17.374 C 314.544 17.690,314.660 18.036,314.922 18.143 C 315.277 18.287,315.272 18.345,314.900 18.368 C 314.625 18.386,314.400 18.906,314.400 19.524 C 314.400 22.685,308.368 23.538,306.962 20.575 C 306.318 19.219,304.800 19.309,304.800 20.703 C 304.800 23.358,302.442 25.757,301.854 23.700 C 301.574 22.723,301.767 20.307,302.182 19.594 C 302.373 19.267,302.391 19.124,302.223 19.274 C 302.055 19.425,301.486 19.385,300.959 19.184 C 300.252 18.915,300.000 18.956,300.000 19.340 C 300.000 19.988,298.091 21.825,297.761 21.495 C 297.628 21.361,297.996 20.627,298.580 19.862 C 299.275 18.950,299.489 18.379,299.201 18.200 C 298.889 18.008,298.910 17.736,299.274 17.264 C 299.644 16.784,299.541 16.809,298.903 17.353 C 298.417 17.768,298.132 18.291,298.271 18.515 C 298.423 18.761,298.324 18.800,298.022 18.613 C 297.695 18.412,296.591 19.196,294.870 20.851 C 291.367 24.222,291.810 23.646,296.000 19.383 C 299.722 15.597,301.655 14.280,305.119 13.172 C 307.820 12.309,307.107 12.168,304.094 12.970 C 301.262 13.724,299.050 15.078,296.238 17.781 C 294.947 19.021,293.093 20.689,292.120 21.487 C 291.146 22.285,290.097 23.425,289.789 24.021 C 288.948 25.647,288.012 28.491,288.006 29.440 C 288.003 29.903,287.576 31.078,287.058 32.052 C 285.907 34.217,285.524 35.855,285.420 39.059 C 285.365 40.740,285.128 41.729,284.670 42.187 C 284.302 42.555,283.905 43.338,283.787 43.928 C 283.669 44.518,283.407 45.540,283.206 46.200 C 283.005 46.860,282.788 48.422,282.724 49.671 C 282.660 50.919,282.528 51.861,282.431 51.764 C 282.157 51.491,281.200 53.982,281.200 54.966 C 281.200 55.447,280.993 56.047,280.740 56.300 C 280.487 56.553,280.262 57.894,280.240 59.280 C 280.218 60.666,280.110 61.890,280.000 62.000 C 279.473 62.528,278.400 64.948,278.400 65.609 C 278.400 66.018,278.220 66.464,278.000 66.600 C 277.780 66.736,277.600 67.238,277.600 67.716 C 277.600 68.194,277.260 69.488,276.844 70.592 C 275.528 74.084,275.238 75.335,275.153 77.883 C 275.107 79.249,274.937 80.284,274.774 80.184 C 274.611 80.083,274.253 80.586,273.979 81.300 C 273.704 82.015,273.240 83.230,272.946 84.000 C 272.652 84.770,272.409 85.807,272.406 86.305 C 272.403 86.803,272.241 87.523,272.047 87.905 C 270.598 90.753,270.043 93.177,269.964 97.000 C 269.924 98.980,269.739 100.698,269.555 100.818 C 269.370 100.938,268.606 102.828,267.856 105.018 C 267.107 107.208,266.307 109.540,266.080 110.200 C 265.111 113.016,264.835 114.339,264.728 116.669 C 264.666 118.027,264.445 119.107,264.238 119.069 C 264.031 119.031,263.666 119.630,263.427 120.400 C 263.188 121.170,262.769 122.193,262.496 122.674 C 262.223 123.154,262.000 124.011,262.000 124.578 C 262.000 125.145,261.657 126.372,261.237 127.304 C 260.222 129.560,259.899 130.987,259.845 133.462 C 259.820 134.596,259.646 135.428,259.457 135.312 C 259.269 135.195,259.243 135.505,259.400 136.000 C 259.588 136.592,259.541 136.811,259.262 136.639 C 259.009 136.482,258.660 137.065,258.394 138.088 C 258.149 139.030,257.780 140.353,257.574 141.028 C 257.368 141.704,257.200 143.605,257.200 145.253 C 257.200 147.410,256.980 148.704,256.416 149.872 C 255.411 151.952,254.413 154.817,254.406 155.645 C 254.403 155.999,253.869 157.461,253.220 158.893 C 252.570 160.325,251.985 162.312,251.920 163.310 C 251.854 164.307,251.691 165.056,251.558 164.974 C 251.246 164.781,250.401 166.634,250.398 167.519 C 250.396 167.893,250.126 168.716,249.798 169.346 C 249.469 169.976,249.200 171.259,249.200 172.197 C 249.200 173.135,248.909 174.599,248.552 175.451 C 247.398 178.211,246.800 181.177,246.800 184.135 C 246.800 186.241,246.582 187.459,246.000 188.600 C 245.560 189.463,245.200 190.480,245.200 190.861 C 245.200 191.241,245.020 191.664,244.800 191.800 C 244.580 191.936,244.400 192.571,244.400 193.211 C 244.400 193.852,243.995 195.146,243.500 196.088 C 242.332 198.312,241.614 200.370,241.606 201.516 C 241.603 202.020,241.240 203.138,240.800 204.000 C 240.360 204.862,240.000 206.015,240.000 206.560 C 240.000 207.106,239.820 207.664,239.600 207.800 C 239.380 207.936,239.200 208.993,239.200 210.148 C 239.200 211.431,238.888 212.895,238.400 213.906 C 237.960 214.816,237.600 215.939,237.600 216.401 C 237.600 216.862,237.314 217.793,236.965 218.468 C 236.561 219.249,236.379 220.408,236.465 221.649 C 236.539 222.722,236.506 223.600,236.391 223.600 C 235.471 223.599,234.282 227.826,234.236 231.262 C 234.215 232.772,234.041 233.826,233.832 233.697 C 233.628 233.570,233.582 233.775,233.727 234.155 C 233.873 234.535,233.826 234.740,233.623 234.614 C 232.928 234.185,232.676 235.107,231.659 241.800 C 231.492 242.900,231.057 244.363,230.692 245.052 C 229.831 246.678,228.813 249.612,228.806 250.489 C 228.803 250.868,228.414 252.038,227.941 253.089 C 226.472 256.360,226.409 256.557,226.303 258.261 C 226.247 259.175,226.074 259.845,225.920 259.750 C 225.765 259.655,225.432 260.347,225.178 261.288 C 224.924 262.230,224.451 263.647,224.126 264.437 C 223.722 265.420,223.577 266.906,223.668 269.138 C 223.740 270.933,223.689 272.401,223.554 272.401 C 223.086 272.399,222.048 275.816,221.549 279.000 C 221.273 280.760,220.722 282.827,220.324 283.594 C 219.926 284.361,219.600 285.385,219.600 285.870 C 219.600 286.356,219.420 286.864,219.200 287.000 C 218.980 287.136,218.800 287.856,218.800 288.600 C 218.800 289.344,218.625 290.061,218.411 290.193 C 218.024 290.433,217.342 291.822,216.401 294.294 C 216.129 295.006,215.986 296.120,216.081 296.770 C 216.180 297.446,216.079 297.919,215.846 297.876 C 215.477 297.808,215.086 298.794,213.961 302.628 C 213.762 303.304,213.600 304.778,213.600 305.905 C 213.600 307.031,213.425 308.061,213.211 308.193 C 212.031 308.923,210.800 313.955,210.800 318.050 C 210.800 319.717,210.564 321.296,210.215 321.972 C 209.438 323.473,208.413 326.445,208.406 327.215 C 208.403 327.554,208.040 328.537,207.600 329.400 C 207.160 330.263,206.794 331.246,206.787 331.585 C 206.780 331.923,206.510 332.549,206.187 332.976 C 205.864 333.404,205.600 334.201,205.600 334.748 C 205.600 335.981,204.752 338.400,204.320 338.400 C 204.144 338.400,204.000 339.019,204.000 339.776 C 204.000 340.533,203.808 341.271,203.573 341.416 C 203.339 341.562,203.173 342.697,203.206 343.940 C 203.287 347.031,203.256 347.282,202.820 347.012 C 202.610 346.883,202.239 347.547,201.994 348.488 C 201.749 349.430,201.380 350.753,201.174 351.428 C 200.968 352.104,200.800 354.024,200.800 355.696 C 200.800 358.471,200.147 360.804,199.149 361.600 C 198.086 362.446,198.131 374.400,199.197 374.400 C 199.371 374.400,199.619 374.820,199.748 375.333 C 199.876 375.847,200.678 377.062,201.529 378.033 C 202.380 379.005,203.666 380.880,204.387 382.200 C 207.820 388.487,209.632 389.072,223.800 388.466 C 234.802 387.996,235.951 387.648,239.923 383.590 C 242.431 381.027,243.144 379.976,244.391 377.000 C 244.667 376.340,245.052 375.487,245.247 375.105 C 245.441 374.723,245.600 373.992,245.600 373.481 C 245.600 372.969,245.960 371.805,246.400 370.894 C 246.840 369.984,247.200 369.071,247.200 368.865 C 247.200 368.660,247.469 367.976,247.798 367.346 C 248.126 366.716,248.396 365.793,248.398 365.296 C 248.399 364.798,248.743 363.628,249.163 362.696 C 250.326 360.113,250.539 358.932,250.597 354.746 C 250.639 351.716,250.795 350.748,251.325 350.218 C 251.695 349.847,252.100 349.062,252.224 348.472 C 252.347 347.882,252.617 347.087,252.824 346.705 C 253.031 346.323,253.200 345.585,253.200 345.065 C 253.200 344.545,253.624 343.322,254.142 342.348 C 255.286 340.197,255.665 338.550,255.742 335.404 C 255.782 333.730,256.008 332.799,256.490 332.314 C 256.869 331.932,257.299 331.121,257.445 330.510 C 257.591 329.900,257.855 329.214,258.032 328.987 C 258.209 328.759,258.398 327.734,258.451 326.709 C 258.504 325.683,258.685 324.929,258.854 325.033 C 259.023 325.138,259.368 324.453,259.622 323.512 C 259.876 322.570,260.323 321.170,260.616 320.400 C 260.909 319.630,261.220 318.100,261.307 317.000 C 261.394 315.900,261.747 314.370,262.091 313.600 C 263.053 311.447,263.693 307.605,263.539 304.910 C 263.463 303.570,263.520 302.549,263.666 302.640 C 263.812 302.731,264.234 301.949,264.604 300.903 C 264.974 299.856,265.440 298.587,265.638 298.081 C 265.837 297.576,266.000 296.735,266.000 296.214 C 266.000 295.250,267.152 292.710,267.700 292.467 C 267.865 292.393,268.000 291.909,268.000 291.390 C 268.000 290.872,268.197 290.326,268.438 290.177 C 268.678 290.028,268.808 289.208,268.727 288.353 C 268.646 287.499,268.705 286.800,268.860 286.800 C 269.275 286.800,270.400 284.398,270.400 283.512 C 270.400 283.092,270.568 282.434,270.772 282.052 C 270.977 281.669,271.202 280.259,271.272 278.917 C 271.343 277.576,271.526 276.556,271.680 276.651 C 271.835 276.746,272.139 276.143,272.356 275.312 C 272.574 274.480,273.033 272.708,273.376 271.374 C 273.719 270.039,274.000 267.780,274.000 266.354 C 274.000 264.927,274.160 263.589,274.356 263.380 C 275.072 262.615,276.493 257.997,276.308 257.032 C 276.199 256.461,276.297 256.074,276.539 256.120 C 277.003 256.208,278.788 251.493,278.795 250.160 C 278.798 249.697,279.224 248.522,279.742 247.548 C 280.885 245.397,281.278 243.724,281.347 240.700 C 281.376 239.435,281.546 238.400,281.724 238.400 C 281.902 238.400,281.936 238.220,281.800 238.000 C 281.664 237.780,281.698 237.599,281.876 237.597 C 282.338 237.592,283.200 235.605,283.200 234.544 C 283.200 234.051,283.380 233.536,283.600 233.400 C 283.820 233.264,284.000 231.993,284.000 230.576 C 284.000 229.159,284.145 228.000,284.323 228.000 C 285.225 228.000,287.004 221.394,286.731 219.056 C 286.637 218.255,286.687 217.600,286.841 217.600 C 287.451 217.600,289.120 211.812,289.174 209.511 C 289.188 208.912,289.543 207.652,289.963 206.711 C 290.382 205.770,291.037 203.920,291.419 202.600 C 292.224 199.812,292.417 199.282,293.596 196.629 C 294.114 195.461,294.409 194.128,294.319 193.357 C 294.235 192.641,294.330 192.088,294.530 192.128 C 294.866 192.195,295.289 191.142,296.348 187.600 C 296.578 186.830,296.798 184.535,296.836 182.500 C 296.874 180.465,297.028 178.800,297.178 178.800 C 297.602 178.800,298.800 176.075,298.800 175.111 C 298.800 173.546,299.677 169.431,300.400 167.600 C 300.791 166.610,301.311 165.297,301.556 164.681 C 301.800 164.066,302.000 163.210,302.000 162.780 C 302.000 162.349,302.360 161.325,302.800 160.504 C 303.240 159.684,303.606 158.739,303.613 158.406 C 303.620 158.073,303.890 157.451,304.213 157.024 C 304.536 156.596,304.800 155.733,304.800 155.104 C 304.800 154.476,305.160 153.216,305.600 152.306 C 306.040 151.395,306.400 150.244,306.400 149.748 C 306.400 149.253,306.580 148.736,306.800 148.600 C 307.350 148.260,307.311 144.104,306.756 143.919 C 306.491 143.830,306.602 143.536,307.033 143.185 C 307.668 142.669,307.717 142.671,307.447 143.200 C 307.279 143.530,307.422 143.454,307.765 143.031 C 308.109 142.607,308.496 141.617,308.626 140.831 C 308.756 140.044,309.028 138.878,309.231 138.240 C 309.434 137.602,309.600 135.703,309.600 134.020 C 309.600 132.337,309.775 130.785,309.988 130.572 C 310.481 130.079,312.400 124.816,312.400 123.957 C 312.400 123.602,312.931 122.139,313.580 120.707 C 314.230 119.275,314.815 117.288,314.880 116.290 C 314.946 115.293,315.109 114.544,315.242 114.626 C 315.576 114.832,316.400 112.937,316.400 111.961 C 316.400 111.521,316.686 110.607,317.035 109.932 C 317.439 109.151,317.621 107.992,317.535 106.751 C 317.461 105.678,317.532 104.800,317.692 104.800 C 317.853 104.800,318.098 104.350,318.236 103.800 C 318.374 103.250,318.628 102.800,318.801 102.800 C 319.214 102.800,319.612 100.212,319.845 96.000 C 319.963 93.885,320.315 91.995,320.777 91.000 C 321.640 89.140,322.400 86.789,322.400 85.977 C 322.400 85.666,322.832 84.509,323.359 83.406 C 324.565 80.883,325.352 77.353,325.131 75.456 C 325.037 74.655,325.076 74.000,325.216 74.000 C 325.753 74.000,327.584 69.515,327.594 68.175 C 327.597 67.721,327.960 66.605,328.400 65.694 C 328.840 64.784,329.200 63.620,329.200 63.108 C 329.200 62.597,329.486 61.769,329.836 61.270 C 330.281 60.635,330.431 59.707,330.336 58.181 C 330.261 56.981,330.327 55.999,330.481 55.999 C 331.335 56.001,332.484 51.894,332.551 48.604 C 332.585 46.937,332.806 46.000,333.278 45.526 C 333.650 45.151,334.067 44.160,334.203 43.322 C 334.339 42.485,334.619 41.387,334.825 40.881 C 335.358 39.574,335.288 35.451,334.626 29.176 C 333.146 15.137,326.639 10.400,311.000 11.976 M133.469 16.914 C 134.267 17.360,134.289 17.465,133.728 18.200 C 133.137 18.975,133.126 18.968,133.384 18.000 L 133.650 17.000 132.841 18.000 C 132.056 18.970,132.039 18.973,132.263 18.100 C 132.405 17.546,132.312 17.200,132.023 17.200 C 131.764 17.200,131.664 17.020,131.800 16.800 C 132.113 16.293,132.392 16.312,133.469 16.914 M297.762 20.039 C 296.932 20.889,296.167 21.500,296.063 21.396 C 295.959 21.292,295.587 21.422,295.237 21.685 C 294.887 21.947,295.303 21.415,296.161 20.501 C 297.020 19.588,297.920 18.877,298.161 18.920 C 298.403 18.964,298.551 18.762,298.490 18.470 C 298.428 18.169,298.572 18.059,298.826 18.216 C 299.111 18.392,298.725 19.052,297.762 20.039 M130.806 23.543 C 130.811 24.113,130.863 24.121,131.200 23.600 C 131.532 23.086,131.589 23.100,131.594 23.696 C 131.598 24.194,131.317 24.368,130.600 24.308 C 129.854 24.247,129.600 23.997,129.600 23.325 C 129.600 22.689,129.776 22.493,130.200 22.655 C 130.530 22.782,130.803 23.181,130.806 23.543 M199.000 49.457 C 192.963 49.872,188.479 51.696,186.219 54.656 C 184.521 56.881,181.215 63.561,181.187 64.826 C 181.180 65.142,180.910 65.749,180.587 66.176 C 180.264 66.604,180.000 67.460,180.000 68.081 C 180.000 68.701,179.657 69.972,179.237 70.904 C 178.079 73.478,177.870 74.659,177.834 78.867 C 177.815 81.066,177.636 82.705,177.421 82.667 C 176.973 82.588,175.212 87.391,175.205 88.708 C 175.202 89.207,174.750 90.329,174.200 91.200 C 173.650 92.071,173.200 93.292,173.200 93.912 C 173.200 94.532,173.027 95.213,172.816 95.424 C 172.605 95.635,172.399 97.016,172.358 98.492 C 172.318 99.968,172.151 101.094,171.989 100.993 C 171.715 100.824,171.462 101.352,170.406 104.300 C 170.189 104.905,169.964 106.148,169.906 107.061 C 169.848 107.975,169.686 108.652,169.546 108.566 C 169.407 108.480,169.077 108.993,168.813 109.705 C 168.550 110.417,168.079 111.591,167.767 112.314 C 167.455 113.036,167.200 113.990,167.200 114.433 C 167.200 114.876,166.840 115.984,166.400 116.894 C 165.960 117.805,165.600 118.930,165.600 119.395 C 165.600 119.860,165.428 120.412,165.217 120.623 C 165.007 120.833,164.807 122.937,164.772 125.298 C 164.737 127.682,164.551 129.493,164.354 129.371 C 163.870 129.073,163.200 130.949,163.200 132.602 C 163.200 133.345,163.041 134.051,162.847 134.171 C 162.652 134.291,162.364 135.427,162.206 136.694 C 162.047 137.962,161.669 139.480,161.365 140.068 C 160.356 142.019,159.526 144.903,159.705 145.838 C 159.806 146.366,159.696 146.726,159.449 146.680 C 159.212 146.636,158.730 147.453,158.379 148.496 C 158.028 149.539,157.620 150.514,157.471 150.663 C 157.322 150.812,157.200 151.507,157.200 152.207 C 157.200 152.908,156.750 154.327,156.200 155.362 C 155.650 156.396,155.200 157.647,155.200 158.141 C 155.200 158.636,155.001 159.239,154.759 159.481 C 154.479 159.761,154.369 161.257,154.459 163.557 C 154.562 166.204,154.464 167.244,154.100 167.383 C 153.825 167.489,153.600 167.853,153.600 168.193 C 153.600 168.533,153.439 169.123,153.243 169.505 C 152.810 170.349,152.000 174.645,152.000 176.100 C 152.000 176.679,151.836 177.254,151.635 177.378 C 151.435 177.502,150.783 179.178,150.186 181.102 C 148.967 185.035,148.830 185.412,147.604 188.171 C 147.086 189.339,146.791 190.672,146.881 191.443 C 146.965 192.159,146.870 192.712,146.670 192.672 C 146.334 192.605,145.963 193.527,144.835 197.228 C 144.596 198.014,144.400 199.419,144.400 200.351 C 144.400 201.391,144.033 202.704,143.449 203.749 C 140.684 208.701,142.210 225.637,145.940 231.400 C 146.509 232.280,146.935 233.139,146.885 233.308 C 146.502 234.612,150.372 240.165,152.375 241.187 C 155.269 242.664,171.959 243.185,176.598 241.944 C 181.716 240.575,184.880 236.841,186.397 230.380 C 186.678 229.181,187.275 227.390,187.723 226.400 C 189.087 223.389,189.190 223.059,189.297 221.339 C 189.353 220.425,189.520 219.752,189.668 219.842 C 189.815 219.933,190.110 219.421,190.323 218.704 C 190.537 217.987,191.016 216.371,191.389 215.112 C 191.831 213.620,192.020 211.847,191.933 210.012 C 191.860 208.464,191.917 207.199,192.061 207.199 C 192.204 207.200,192.546 206.615,192.821 205.900 C 193.095 205.185,193.560 203.970,193.854 203.200 C 194.148 202.430,194.391 201.519,194.394 201.175 C 194.397 200.831,194.760 199.805,195.200 198.894 C 195.640 197.984,196.000 196.858,196.000 196.393 C 196.000 195.928,196.169 195.231,196.376 194.844 C 196.584 194.457,196.793 193.029,196.842 191.670 C 196.891 190.312,197.073 189.200,197.247 189.200 C 197.539 189.200,197.979 188.338,199.144 185.481 C 199.395 184.866,199.600 183.914,199.600 183.365 C 199.600 182.817,199.960 181.662,200.400 180.800 C 200.840 179.938,201.200 178.811,201.200 178.296 C 201.200 177.781,201.372 177.188,201.583 176.977 C 201.793 176.767,202.010 175.393,202.064 173.924 C 202.118 172.455,202.297 171.336,202.462 171.438 C 202.626 171.540,202.960 170.853,203.204 169.912 C 203.447 168.970,203.829 167.660,204.052 167.000 C 204.274 166.340,204.550 164.270,204.664 162.400 C 204.791 160.313,205.167 158.344,205.637 157.303 C 206.057 156.369,206.610 154.749,206.865 153.703 C 207.121 152.656,207.660 151.068,208.065 150.174 C 208.469 149.279,208.800 148.255,208.800 147.897 C 208.800 147.540,208.980 147.136,209.200 147.000 C 209.420 146.864,209.600 146.065,209.600 145.225 C 209.600 144.356,209.858 143.484,210.200 143.200 C 210.530 142.926,210.800 142.375,210.800 141.975 C 210.800 141.575,210.980 141.136,211.200 141.000 C 211.420 140.864,211.600 140.259,211.600 139.656 C 211.600 139.053,211.763 138.389,211.962 138.180 C 212.161 137.971,212.386 136.630,212.462 135.200 C 212.552 133.507,212.830 132.344,213.260 131.867 C 213.962 131.089,214.323 129.560,214.648 126.000 C 214.759 124.790,215.179 122.900,215.582 121.800 C 217.228 117.305,217.676 115.514,217.531 113.996 C 217.447 113.118,217.484 112.400,217.612 112.400 C 217.902 112.400,218.962 109.939,219.594 107.800 C 219.855 106.920,220.232 105.705,220.434 105.100 C 220.635 104.495,220.965 103.505,221.166 102.900 C 222.186 99.836,222.400 98.758,222.400 96.672 C 222.400 95.422,222.535 94.399,222.700 94.397 C 223.152 94.394,224.400 92.040,224.400 91.191 C 224.400 90.782,224.597 90.326,224.838 90.177 C 225.078 90.028,225.208 89.208,225.127 88.353 C 225.046 87.499,225.110 86.800,225.271 86.800 C 225.618 86.800,226.602 84.685,227.038 83.000 C 227.438 81.453,227.443 67.375,227.044 65.800 C 226.877 65.140,226.575 64.240,226.373 63.800 C 226.171 63.360,225.740 62.230,225.416 61.288 C 222.543 52.939,212.669 48.517,199.000 49.457 M145.719 226.800 C 145.872 226.464,145.902 226.572,145.787 227.044 C 145.492 228.254,145.988 229.440,146.493 228.734 C 146.774 228.342,146.812 228.396,146.636 228.936 C 146.505 229.342,146.690 230.289,147.047 231.043 C 147.800 232.630,148.334 233.095,148.255 232.096 C 148.218 231.627,148.525 231.371,149.200 231.311 C 149.750 231.261,149.976 231.321,149.703 231.443 C 149.353 231.599,149.322 231.880,149.596 232.392 C 149.881 232.926,149.833 233.179,149.413 233.340 C 149.014 233.493,148.907 233.353,149.058 232.880 C 149.243 232.300,149.212 232.289,148.844 232.800 C 148.143 233.774,148.332 234.104,149.434 233.827 C 150.104 233.659,150.377 233.714,150.210 233.984 C 150.068 234.213,149.648 234.403,149.276 234.406 C 148.693 234.411,148.683 234.466,149.200 234.800 C 149.568 235.038,149.614 235.190,149.320 235.194 C 148.323 235.207,144.338 226.765,144.431 224.837 C 144.448 224.487,144.683 224.920,144.954 225.800 C 145.294 226.905,145.530 227.214,145.719 226.800 M155.200 228.333 C 155.200 229.409,155.026 229.867,154.618 229.867 C 154.297 229.867,154.128 229.717,154.241 229.533 C 154.355 229.350,154.206 229.200,153.911 229.200 C 153.617 229.200,153.172 228.660,152.922 228.000 C 152.474 226.813,152.484 226.800,153.835 226.800 C 155.151 226.800,155.200 226.855,155.200 228.333 M147.776 229.421 C 147.030 230.017,147.039 230.031,148.000 229.779 C 148.963 229.527,148.971 229.539,148.208 230.121 C 147.453 230.695,147.472 230.715,148.608 230.532 L 149.800 230.340 148.800 230.895 C 147.894 231.398,147.756 231.373,147.333 230.626 C 146.846 229.767,147.265 228.800,148.125 228.800 C 148.361 228.800,148.204 229.079,147.776 229.421 M47.787 380.818 C 43.619 385.041,40.514 386.493,34.765 386.907 C 33.354 387.009,32.740 387.001,33.400 386.889 L 34.600 386.686 33.600 386.362 C 32.958 386.154,33.459 386.104,35.000 386.222 C 36.572 386.342,37.124 386.284,36.600 386.054 C 36.029 385.804,36.429 385.717,38.000 385.752 C 40.920 385.816,43.305 384.583,46.966 381.117 C 50.501 377.769,50.963 377.602,47.787 380.818 M47.200 380.125 C 47.200 380.194,46.615 380.779,45.900 381.425 L 44.600 382.600 45.775 381.300 C 46.870 380.088,47.200 379.816,47.200 380.125 " stroke="none" fill="#7c54b4" fill-rule="evenodd"></path></g></svg>