<?xml version="1.0" encoding="UTF-8" standalone="no"?>
<!DOCTYPE svg PUBLIC "-//W3C//DTD SVG 1.1//EN"
 "http://www.w3.org/Graphics/SVG/1.1/DTD/svg11.dtd">
<!-- Generated by graphviz version 2.26.3 (20100126.1600)
 -->
<!-- Title: G Pages: 1 -->
<svg width="832pt" height="476pt"
 viewBox="0.00 0.00 832.00 476.00" xmlns="http://www.w3.org/2000/svg" xmlns:xlink="http://www.w3.org/1999/xlink">
<g id="graph1" class="graph" transform="scale(1 1) rotate(0) translate(4 472)">
<title>G</title>
<polygon fill="white" stroke="white" points="-4,5 -4,-472 829,-472 829,5 -4,5"/>
<g id="graph2" class="cluster"><title>cluster_Global</title>
<polyline fill="none" stroke="gray" points="612,-8 804,-8 "/>
<path fill="none" stroke="gray" d="M804,-8C810,-8 816,-14 816,-20"/>
<polyline fill="none" stroke="gray" points="816,-20 816,-448 "/>
<path fill="none" stroke="gray" d="M816,-448C816,-454 810,-460 804,-460"/>
<polyline fill="none" stroke="gray" points="804,-460 612,-460 "/>
<path fill="none" stroke="gray" d="M612,-460C606,-460 600,-454 600,-448"/>
<polyline fill="none" stroke="gray" points="600,-448 600,-20 "/>
<path fill="none" stroke="gray" d="M600,-20C600,-14 606,-8 612,-8"/>
<text text-anchor="middle" x="708" y="-446.1" font-family="Times Roman,serif" font-size="11.00" fill="gray">Global</text>
</g>
<g id="graph3" class="cluster"><title>cluster_\TwbsHelper</title>
<polyline fill="none" stroke="gray" points="620,-16 796,-16 "/>
<path fill="none" stroke="gray" d="M796,-16C802,-16 808,-22 808,-28"/>
<polyline fill="none" stroke="gray" points="808,-28 808,-418 "/>
<path fill="none" stroke="gray" d="M808,-418C808,-424 802,-430 796,-430"/>
<polyline fill="none" stroke="gray" points="796,-430 620,-430 "/>
<path fill="none" stroke="gray" d="M620,-430C614,-430 608,-424 608,-418"/>
<polyline fill="none" stroke="gray" points="608,-418 608,-28 "/>
<path fill="none" stroke="gray" d="M608,-28C608,-22 614,-16 620,-16"/>
<text text-anchor="middle" x="708" y="-416.1" font-family="Times Roman,serif" font-size="11.00" fill="gray">TwbsHelper</text>
</g>
<g id="graph4" class="cluster"><title>cluster_\TwbsHelper\Options</title>
<polyline fill="none" stroke="gray" points="628,-242 788,-242 "/>
<path fill="none" stroke="gray" d="M788,-242C794,-242 800,-248 800,-254"/>
<polyline fill="none" stroke="gray" points="800,-254 800,-388 "/>
<path fill="none" stroke="gray" d="M800,-388C800,-394 794,-400 788,-400"/>
<polyline fill="none" stroke="gray" points="788,-400 628,-400 "/>
<path fill="none" stroke="gray" d="M628,-400C622,-400 616,-394 616,-388"/>
<polyline fill="none" stroke="gray" points="616,-388 616,-254 "/>
<path fill="none" stroke="gray" d="M616,-254C616,-248 622,-242 628,-242"/>
<text text-anchor="middle" x="708" y="-386.1" font-family="Times Roman,serif" font-size="11.00" fill="gray">Options</text>
</g>
<g id="graph5" class="cluster"><title>cluster_\TwbsHelper\Options\Factory</title>
<polyline fill="none" stroke="gray" points="636,-296 780,-296 "/>
<path fill="none" stroke="gray" d="M780,-296C786,-296 792,-302 792,-308"/>
<polyline fill="none" stroke="gray" points="792,-308 792,-358 "/>
<path fill="none" stroke="gray" d="M792,-358C792,-364 786,-370 780,-370"/>
<polyline fill="none" stroke="gray" points="780,-370 636,-370 "/>
<path fill="none" stroke="gray" d="M636,-370C630,-370 624,-364 624,-358"/>
<polyline fill="none" stroke="gray" points="624,-358 624,-308 "/>
<path fill="none" stroke="gray" d="M624,-308C624,-302 630,-296 636,-296"/>
<text text-anchor="middle" x="708" y="-356.1" font-family="Times Roman,serif" font-size="11.00" fill="gray">Factory</text>
</g>
<g id="graph6" class="cluster"><title>cluster_\TwbsHelper\View</title>
<polyline fill="none" stroke="gray" points="655,-68 761,-68 "/>
<path fill="none" stroke="gray" d="M761,-68C767,-68 773,-74 773,-80"/>
<polyline fill="none" stroke="gray" points="773,-80 773,-222 "/>
<path fill="none" stroke="gray" d="M773,-222C773,-228 767,-234 761,-234"/>
<polyline fill="none" stroke="gray" points="761,-234 655,-234 "/>
<path fill="none" stroke="gray" d="M655,-234C649,-234 643,-228 643,-222"/>
<polyline fill="none" stroke="gray" points="643,-222 643,-80 "/>
<path fill="none" stroke="gray" d="M643,-80C643,-74 649,-68 655,-68"/>
<text text-anchor="middle" x="708" y="-220.1" font-family="Times Roman,serif" font-size="11.00" fill="gray">View</text>
</g>
<g id="graph7" class="cluster"><title>cluster_\TwbsHelper\View\Helper</title>
<polyline fill="none" stroke="gray" points="663,-76 753,-76 "/>
<path fill="none" stroke="gray" d="M753,-76C759,-76 765,-82 765,-88"/>
<polyline fill="none" stroke="gray" points="765,-88 765,-192 "/>
<path fill="none" stroke="gray" d="M765,-192C765,-198 759,-204 753,-204"/>
<polyline fill="none" stroke="gray" points="753,-204 663,-204 "/>
<path fill="none" stroke="gray" d="M663,-204C657,-204 651,-198 651,-192"/>
<polyline fill="none" stroke="gray" points="651,-192 651,-88 "/>
<path fill="none" stroke="gray" d="M651,-88C651,-82 657,-76 663,-76"/>
<text text-anchor="middle" x="708" y="-190.1" font-family="Times Roman,serif" font-size="11.00" fill="gray">Helper</text>
</g>
<!-- \\TwbsHelper\\Options\\Factory\\ModuleOptionsFactory -->
<g id="node5" class="node"><title>\\TwbsHelper\\Options\\Factory\\ModuleOptionsFactory</title>
<polygon fill="none" stroke="black" points="784,-340 632,-340 632,-304 784,-304 784,-340"/>
<text text-anchor="middle" x="708" y="-319.1" font-family="Courier,monospace" font-size="11.00">ModuleOptionsFactory</text>
</g>
<!-- \\Zend\\ServiceManager\\FactoryInterface -->
<g id="node15" class="node"><title>\\Zend\\ServiceManager\\FactoryInterface</title>
<ellipse fill="none" stroke="black" cx="280" cy="-322" rx="202.94" ry="18.3848"/>
<text text-anchor="middle" x="280" y="-318.4" font-family="Times Roman,serif" font-size="14.00" fill="gray">\Zend\ServiceManager\FactoryInterface</text>
</g>
<!-- \\TwbsHelper\\Options\\Factory\\ModuleOptionsFactory&#45;&gt;\\Zend\\ServiceManager\\FactoryInterface -->
<g id="edge10" class="edge"><title>\\TwbsHelper\\Options\\Factory\\ModuleOptionsFactory&#45;&gt;\\Zend\\ServiceManager\\FactoryInterface</title>
<path fill="none" stroke="black" stroke-dasharray="1,5" d="M631.975,-322C592.872,-322 543.054,-322 493.287,-322"/>
<polygon fill="none" stroke="black" points="493.006,-318.5 483.006,-322 493.006,-325.5 493.006,-318.5"/>
</g>
<!-- \\TwbsHelper\\Options\\ModuleOptions -->
<g id="node6" class="node"><title>\\TwbsHelper\\Options\\ModuleOptions</title>
<polygon fill="none" stroke="black" points="760,-286 656,-286 656,-250 760,-250 760,-286"/>
<text text-anchor="middle" x="708" y="-265.1" font-family="Courier,monospace" font-size="11.00">ModuleOptions</text>
</g>
<!-- \\Zend\\Stdlib\\AbstractOptions -->
<g id="node17" class="node"><title>\\Zend\\Stdlib\\AbstractOptions</title>
<ellipse fill="none" stroke="black" cx="280" cy="-268" rx="152.028" ry="18.3848"/>
<text text-anchor="middle" x="280" y="-264.4" font-family="Times Roman,serif" font-size="14.00" fill="gray">\Zend\Stdlib\AbstractOptions</text>
</g>
<!-- \\TwbsHelper\\Options\\ModuleOptions&#45;&gt;\\Zend\\Stdlib\\AbstractOptions -->
<g id="edge12" class="edge"><title>\\TwbsHelper\\Options\\ModuleOptions&#45;&gt;\\Zend\\Stdlib\\AbstractOptions</title>
<path fill="none" stroke="black" d="M655.947,-268C602.965,-268 518.09,-268 442.381,-268"/>
<polygon fill="none" stroke="black" points="442.243,-264.5 432.243,-268 442.243,-271.5 442.243,-264.5"/>
</g>
<!-- \\TwbsHelper\\View\\Helper\\Abbreviation -->
<g id="node9" class="node"><title>\\TwbsHelper\\View\\Helper\\Abbreviation</title>
<polygon fill="none" stroke="black" points="757,-174 659,-174 659,-138 757,-138 757,-174"/>
<text text-anchor="middle" x="708" y="-153.1" font-family="Courier,monospace" font-size="11.00">Abbreviation</text>
</g>
<!-- \\Zend\\View\\Helper\\AbstractHtmlElement -->
<g id="node19" class="node"><title>\\Zend\\View\\Helper\\AbstractHtmlElement</title>
<ellipse fill="none" stroke="black" cx="280" cy="-129" rx="210.011" ry="18.3848"/>
<text text-anchor="middle" x="280" y="-125.4" font-family="Times Roman,serif" font-size="14.00" fill="gray">\Zend\View\Helper\AbstractHtmlElement</text>
</g>
<!-- \\TwbsHelper\\View\\Helper\\Abbreviation&#45;&gt;\\Zend\\View\\Helper\\AbstractHtmlElement -->
<g id="edge14" class="edge"><title>\\TwbsHelper\\View\\Helper\\Abbreviation&#45;&gt;\\Zend\\View\\Helper\\AbstractHtmlElement</title>
<path fill="none" stroke="black" d="M658.903,-152.903C610.041,-149.82 532.075,-144.902 459.535,-140.326"/>
<polygon fill="none" stroke="black" points="459.54,-136.819 449.339,-139.683 459.099,-143.805 459.54,-136.819"/>
</g>
<!-- \\TwbsHelper\\View\\Helper\\Blockquote -->
<g id="node10" class="node"><title>\\TwbsHelper\\View\\Helper\\Blockquote</title>
<polygon fill="none" stroke="black" points="750,-120 666,-120 666,-84 750,-84 750,-120"/>
<text text-anchor="middle" x="708" y="-99.1" font-family="Courier,monospace" font-size="11.00">Blockquote</text>
</g>
<!-- \\TwbsHelper\\View\\Helper\\Blockquote&#45;&gt;\\Zend\\View\\Helper\\AbstractHtmlElement -->
<g id="edge16" class="edge"><title>\\TwbsHelper\\View\\Helper\\Blockquote&#45;&gt;\\Zend\\View\\Helper\\AbstractHtmlElement</title>
<path fill="none" stroke="black" d="M665.79,-104.663C617.653,-107.699 535.763,-112.865 459.781,-117.659"/>
<polygon fill="none" stroke="black" points="459.346,-114.179 449.586,-118.302 459.787,-121.165 459.346,-114.179"/>
</g>
<!-- \\TwbsHelper\\Module -->
<g id="node11" class="node"><title>\\TwbsHelper\\Module</title>
<polygon fill="none" stroke="black" points="736,-60 680,-60 680,-24 736,-24 736,-60"/>
<text text-anchor="middle" x="708" y="-39.1" font-family="Courier,monospace" font-size="11.00">Module</text>
</g>
<!-- \\Zend\\ModuleManager\\Feature\\ConfigProviderInterface -->
<g id="node13" class="node"><title>\\Zend\\ModuleManager\\Feature\\ConfigProviderInterface</title>
<ellipse fill="none" stroke="black" cx="280" cy="-42" rx="278.808" ry="18.3848"/>
<text text-anchor="middle" x="280" y="-38.4" font-family="Times Roman,serif" font-size="14.00" fill="gray">\Zend\ModuleManager\Feature\ConfigProviderInterface</text>
</g>
<!-- \\TwbsHelper\\Module&#45;&gt;\\Zend\\ModuleManager\\Feature\\ConfigProviderInterface -->
<g id="edge8" class="edge"><title>\\TwbsHelper\\Module&#45;&gt;\\Zend\\ModuleManager\\Feature\\ConfigProviderInterface</title>
<path fill="none" stroke="black" stroke-dasharray="1,5" d="M679.253,-42C654.031,-42 614.485,-42 569.889,-42"/>
<polygon fill="none" stroke="black" points="569.687,-38.5001 559.687,-42 569.687,-45.5001 569.687,-38.5001"/>
</g>
</g>
</svg>
